<svg xmlns="http://www.w3.org/2000/svg" width="48" height="48" viewBox="0 0 48 48">
  <path d="M31.5,7c2.1,0,4.3,1.5,5.7,3.5c-5,2.8-4.2,10.1,0.8,12c-0.8,2.5-1.2,3.6-2.2,5.8c-1.5,3.1-3.6,7-6.3,7c-2.3,0-2.9-1.4-6-1.4 s-3.7,1.4-6,1.4c-2.7,0-4.8-3.8-6.3-7c-2.6-5.6-2.9-12.1-1.3-15.5c1.3-2.8,3.7-4.5,6.3-4.5c2.4,0,3.7,1.4,6,1.4s3.6-1.4,6-1.4 c1.1,0,2.3,0.3,3.3,0.7" fill="none" stroke="#000000" stroke-width="2" stroke-linecap="round" stroke-linejoin="round"/>
  <path d="M32.5,3c0.3,2.3-0.5,4.5-1.9,6.1c-1.4,1.5-3.5,2.4-5.6,2.2" fill="none" stroke="#000000" stroke-width="2" stroke-linecap="round" stroke-linejoin="round"/>
</svg> 