<?xml version="1.0" encoding="UTF-8"?>
<!DOCTYPE svg PUBLIC "-//W3C//DTD SVG 1.1//EN" "http://www.w3.org/Graphics/SVG/1.1/DTD/svg11.dtd">
<svg xmlns="http://www.w3.org/2000/svg" version="1.1" width="1494px" height="472px" style="shape-rendering:geometricPrecision; text-rendering:geometricPrecision; image-rendering:optimizeQuality; fill-rule:evenodd; clip-rule:evenodd" xmlns:xlink="http://www.w3.org/1999/xlink">
<g><path style="opacity:1" fill="#ffffff" d="M -0.5,-0.5 C 497.5,-0.5 995.5,-0.5 1493.5,-0.5C 1493.5,150.167 1493.5,300.833 1493.5,451.5C 995.5,451.5 497.5,451.5 -0.5,451.5C -0.5,300.833 -0.5,150.167 -0.5,-0.5 Z"/></g>
<g><path style="opacity:1" fill="#989796" d="M 339.5,51.5 C 325.442,46.176 311.442,46.176 297.5,51.5C 299.907,49.5491 302.741,48.2158 306,47.5C 315.195,46.0942 324.362,46.2609 333.5,48C 335.758,48.876 337.758,50.0427 339.5,51.5 Z"/></g>
<g><path style="opacity:1" fill="#000000" d="M 339.5,51.5 C 339.833,51.5 340.167,51.5 340.5,51.5C 342.033,53.2451 344.033,54.2451 346.5,54.5C 347.436,55.9744 348.77,56.9744 350.5,57.5C 352.55,59.5475 354.883,61.2141 357.5,62.5C 358.167,63.1667 358.833,63.8333 359.5,64.5C 359.427,66.0269 360.094,67.0269 361.5,67.5C 362.026,69.2303 363.026,70.5637 364.5,71.5C 365.026,73.2303 366.026,74.5637 367.5,75.5C 367.953,77.5652 368.953,79.2318 370.5,80.5C 370.427,82.0269 371.094,83.0269 372.5,83.5C 372.998,86.3263 374.331,88.6597 376.5,90.5C 376.5,90.8333 376.5,91.1667 376.5,91.5C 377.026,93.2303 378.026,94.5637 379.5,95.5C 379.992,97.8185 380.992,99.8185 382.5,101.5C 382.799,103.455 383.799,104.789 385.5,105.5C 385.5,105.833 385.5,106.167 385.5,106.5C 386.774,109.76 388.44,112.76 390.5,115.5C 391.263,117.368 392.263,119.035 393.5,120.5C 393.932,121.71 394.599,122.71 395.5,123.5C 395.328,124.492 395.662,125.158 396.5,125.5C 397.263,127.368 398.263,129.035 399.5,130.5C 399.953,132.565 400.953,134.232 402.5,135.5C 402.992,137.819 403.992,139.819 405.5,141.5C 407.181,144.203 408.847,146.869 410.5,149.5C 410.932,150.71 411.599,151.71 412.5,152.5C 412.229,154.38 412.896,155.713 414.5,156.5C 414.554,158.632 415.554,159.965 417.5,160.5C 418.32,164.302 419.986,167.636 422.5,170.5C 422.932,171.71 423.599,172.71 424.5,173.5C 424.328,174.492 424.662,175.158 425.5,175.5C 425.932,176.71 426.599,177.71 427.5,178.5C 428.079,181.331 429.412,183.664 431.5,185.5C 433.664,190.5 436.331,195.167 439.5,199.5C 439.953,201.565 440.953,203.232 442.5,204.5C 442.427,206.027 443.094,207.027 444.5,207.5C 445.809,212.121 448.142,216.121 451.5,219.5C 451.992,221.819 452.992,223.819 454.5,225.5C 454.799,227.455 455.799,228.789 457.5,229.5C 457.5,229.833 457.5,230.167 457.5,230.5C 457.427,232.027 458.094,233.027 459.5,233.5C 460.13,235.75 461.13,237.75 462.5,239.5C 468.232,255.118 467.565,270.451 460.5,285.5C 458.461,286.911 457.461,288.911 457.5,291.5C 455.469,292.539 454.136,294.205 453.5,296.5C 452.5,296.833 451.833,297.5 451.5,298.5C 450.167,299.167 449.167,300.167 448.5,301.5C 446.091,302.701 444.091,304.367 442.5,306.5C 441.833,306.5 441.5,306.833 441.5,307.5C 438.128,309.186 434.795,310.853 431.5,312.5C 416.509,317.804 401.509,317.804 386.5,312.5C 384.75,311.13 382.75,310.13 380.5,309.5C 379.71,308.599 378.71,307.932 377.5,307.5C 377.167,307.5 376.833,307.5 376.5,307.5C 375.564,306.026 374.23,305.026 372.5,304.5C 371.205,303.512 369.872,302.512 368.5,301.5C 366.14,299.147 363.473,297.147 360.5,295.5C 354.14,288.473 347.473,281.806 340.5,275.5C 340.586,274.504 340.252,273.671 339.5,273C 340.756,272.583 341.423,271.75 341.5,270.5C 343.38,270.771 344.713,270.104 345.5,268.5C 346.71,268.068 347.71,267.401 348.5,266.5C 349.833,266.5 350.5,265.833 350.5,264.5C 352.5,264.5 353.5,263.5 353.5,261.5C 355.5,261.5 356.5,260.5 356.5,258.5C 358.522,257.493 359.855,255.826 360.5,253.5C 367.11,243.217 369.277,231.884 367,219.5C 366.617,218.944 366.117,218.611 365.5,218.5C 365.405,216.214 364.738,214.214 363.5,212.5C 363.068,211.29 362.401,210.29 361.5,209.5C 360.66,207.147 359.326,205.147 357.5,203.5C 357.573,201.973 356.906,200.973 355.5,200.5C 354.66,198.147 353.326,196.147 351.5,194.5C 350.974,192.77 349.974,191.436 348.5,190.5C 348.5,189.833 348.167,189.5 347.5,189.5C 347.291,188.078 346.791,186.745 346,185.5C 343.801,183.019 341.634,180.686 339.5,178.5C 338.908,174.911 336.908,172.578 333.5,171.5C 327.915,166.217 321.248,164.05 313.5,165C 312.944,165.383 312.611,165.883 312.5,166.5C 311.833,166.5 311.167,166.5 310.5,166.5C 308.326,166.75 306.659,167.75 305.5,169.5C 302.861,171.473 300.527,173.806 298.5,176.5C 297.026,177.436 296.026,178.77 295.5,180.5C 293.674,182.147 292.34,184.147 291.5,186.5C 289.457,187.579 288.124,189.246 287.5,191.5C 285.896,192.287 285.229,193.62 285.5,195.5C 284.833,195.5 284.5,195.833 284.5,196.5C 285.376,196.369 286.043,196.702 286.5,197.5C 283.529,202.303 280.362,206.97 277,211.5C 271.643,222.798 271.143,234.298 275.5,246C 275.472,247.07 275.139,247.903 274.5,248.5C 273.507,245.927 272.674,243.26 272,240.5C 271.289,231.806 271.456,223.139 272.5,214.5C 270.882,217.171 270.215,220.171 270.5,223.5C 269.335,224.496 268.668,225.829 268.5,227.5C 268.964,230.349 269.631,233.016 270.5,235.5C 270.033,241.671 271.7,247.004 275.5,251.5C 275.5,251.833 275.5,252.167 275.5,252.5C 276.026,254.23 277.026,255.564 278.5,256.5C 279.443,259.109 281.11,261.109 283.5,262.5C 284.891,264.89 286.891,266.557 289.5,267.5C 290.287,269.104 291.62,269.771 293.5,269.5C 293.5,270.167 293.833,270.5 294.5,270.5C 296.401,271.935 296.734,273.602 295.5,275.5C 294.167,276.167 293.167,277.167 292.5,278.5C 288.5,281.833 284.833,285.5 281.5,289.5C 280.167,290.167 279.167,291.167 278.5,292.5C 277.167,293.167 276.167,294.167 275.5,295.5C 272.891,296.443 270.891,298.11 269.5,300.5C 268.5,300.833 267.833,301.5 267.5,302.5C 264.802,302.845 262.802,304.178 261.5,306.5C 258.968,307.596 256.635,308.929 254.5,310.5C 252.847,310.66 251.514,311.326 250.5,312.5C 232.188,319.221 214.855,317.554 198.5,307.5C 197.833,307.167 197.167,306.833 196.5,306.5C 196.027,305.094 195.027,304.427 193.5,304.5C 191.833,302.167 189.833,300.167 187.5,298.5C 186.833,297.167 185.833,296.167 184.5,295.5C 184.573,293.973 183.906,292.973 182.5,292.5C 181.89,290.566 180.89,288.899 179.5,287.5C 178.157,284.457 176.823,281.457 175.5,278.5C 171.534,265.858 171.534,253.191 175.5,240.5C 175.5,240.167 175.5,239.833 175.5,239.5C 177.245,237.967 178.245,235.967 178.5,233.5C 180.25,232.341 181.25,230.674 181.5,228.5C 183.669,226.66 185.002,224.326 185.5,221.5C 186.401,220.71 187.068,219.71 187.5,218.5C 188.737,217.035 189.737,215.368 190.5,213.5C 193.665,209.176 196.332,204.509 198.5,199.5C 200.047,198.232 201.047,196.565 201.5,194.5C 202.338,194.158 202.672,193.492 202.5,192.5C 204.653,190.206 206.32,187.54 207.5,184.5C 210.665,180.176 213.332,175.509 215.5,170.5C 215.5,170.167 215.5,169.833 215.5,169.5C 217.048,169.179 217.715,168.179 217.5,166.5C 218.401,165.71 219.068,164.71 219.5,163.5C 221.153,160.869 222.819,158.203 224.5,155.5C 225.11,154.609 225.443,153.609 225.5,152.5C 226.401,151.71 227.068,150.71 227.5,149.5C 229.047,148.232 230.047,146.565 230.5,144.5C 233.014,141.636 234.68,138.302 235.5,134.5C 236.376,134.631 237.043,134.298 237.5,133.5C 239.02,131.338 240.02,129.005 240.5,126.5C 241.401,125.71 242.068,124.71 242.5,123.5C 243.674,122.486 244.34,121.153 244.5,119.5C 245.167,119.5 245.5,119.167 245.5,118.5C 246.401,117.71 247.068,116.71 247.5,115.5C 249.008,113.819 250.008,111.819 250.5,109.5C 252.104,108.713 252.771,107.38 252.5,105.5C 253.167,105.5 253.5,105.167 253.5,104.5C 255.669,102.66 257.002,100.326 257.5,97.5C 258.906,97.0269 259.573,96.0269 259.5,94.5C 260.737,93.0351 261.737,91.3684 262.5,89.5C 266.307,83.2863 269.973,76.953 273.5,70.5C 274.167,70.5 274.5,70.1667 274.5,69.5C 275.906,69.0269 276.573,68.0269 276.5,66.5C 278.833,64.8333 280.833,62.8333 282.5,60.5C 284.23,59.9744 285.564,58.9744 286.5,57.5C 288.368,56.7368 290.035,55.7368 291.5,54.5C 293.75,53.8698 295.75,52.8698 297.5,51.5C 311.442,46.176 325.442,46.176 339.5,51.5 Z"/></g>
<g><path style="opacity:1" fill="#b9b8b7" d="M 297.5,51.5 C 295.75,52.8698 293.75,53.8698 291.5,54.5C 292.784,52.3862 294.784,51.3862 297.5,51.5 Z"/></g>
<g><path style="opacity:1" fill="#9c9b9a" d="M 340.5,51.5 C 342.967,51.7549 344.967,52.7549 346.5,54.5C 344.033,54.2451 342.033,53.2451 340.5,51.5 Z"/></g>
<g><path style="opacity:1" fill="#a2a2a1" d="M 291.5,54.5 C 290.035,55.7368 288.368,56.7368 286.5,57.5C 287.3,55.2591 288.966,54.2591 291.5,54.5 Z"/></g>
<g><path style="opacity:1" fill="#a7a7a5" d="M 346.5,54.5 C 348.632,54.5544 349.965,55.5544 350.5,57.5C 348.77,56.9744 347.436,55.9744 346.5,54.5 Z"/></g>
<g><path style="opacity:1" fill="#a8a8a7" d="M 350.5,57.5 C 353.674,58.0102 356.008,59.6769 357.5,62.5C 354.883,61.2141 352.55,59.5475 350.5,57.5 Z"/></g>
<g><path style="opacity:1" fill="#a19f9e" d="M 286.5,57.5 C 285.564,58.9744 284.23,59.9744 282.5,60.5C 283.035,58.5544 284.368,57.5544 286.5,57.5 Z"/></g>
<g><path style="opacity:1" fill="#b3b3b2" d="M 359.5,64.5 C 360.906,64.9731 361.573,65.9731 361.5,67.5C 360.094,67.0269 359.427,66.0269 359.5,64.5 Z"/></g>
<g><path style="opacity:1" fill="#b1b0af" d="M 276.5,66.5 C 276.573,68.0269 275.906,69.0269 274.5,69.5C 274.427,67.9731 275.094,66.9731 276.5,66.5 Z"/></g>
<g><path style="opacity:1" fill="#919190" d="M 361.5,67.5 C 363.446,68.0347 364.446,69.368 364.5,71.5C 363.026,70.5637 362.026,69.2303 361.5,67.5 Z"/></g>
<g><path style="opacity:1" fill="#8b8b8a" d="M 364.5,71.5 C 366.446,72.0347 367.446,73.368 367.5,75.5C 366.026,74.5637 365.026,73.2303 364.5,71.5 Z"/></g>
<g><path style="opacity:1" fill="#868685" d="M 273.5,70.5 C 269.973,76.953 266.307,83.2863 262.5,89.5C 262.519,87.9397 262.852,86.4397 263.5,85C 266.703,79.9835 270.036,75.1501 273.5,70.5 Z"/></g>
<g><path style="opacity:1" fill="#949393" d="M 367.5,75.5 C 369.408,76.4856 370.408,78.1523 370.5,80.5C 368.953,79.2318 367.953,77.5652 367.5,75.5 Z"/></g>
<g><path style="opacity:1" fill="#8a8987" d="M 370.5,80.5 C 372.048,80.8212 372.715,81.8212 372.5,83.5C 371.094,83.0269 370.427,82.0269 370.5,80.5 Z"/></g>
<g><path style="opacity:1" fill="#8d8d8b" d="M 372.5,83.5 C 374.769,85.2424 376.102,87.5757 376.5,90.5C 374.331,88.6597 372.998,86.3263 372.5,83.5 Z"/></g>
<g><path style="opacity:1" fill="#949393" d="M 262.5,89.5 C 261.737,91.3684 260.737,93.0351 259.5,94.5C 259.259,91.9664 260.259,90.2998 262.5,89.5 Z"/></g>
<g><path style="opacity:1" fill="#9f9f9e" d="M 376.5,91.5 C 378.446,92.0347 379.446,93.368 379.5,95.5C 378.026,94.5637 377.026,93.2303 376.5,91.5 Z"/></g>
<g><path style="opacity:1" fill="#adabaa" d="M 259.5,94.5 C 259.573,96.0269 258.906,97.0269 257.5,97.5C 257.285,95.8212 257.952,94.8212 259.5,94.5 Z"/></g>
<g><path style="opacity:1" fill="#9d9b9b" d="M 379.5,95.5 C 381.539,96.911 382.539,98.911 382.5,101.5C 380.992,99.8185 379.992,97.8185 379.5,95.5 Z"/></g>
<g><path style="opacity:1" fill="#b5b5b4" d="M 257.5,97.5 C 257.002,100.326 255.669,102.66 253.5,104.5C 254.079,101.669 255.412,99.3356 257.5,97.5 Z"/></g>
<g><path style="opacity:1" fill="#a5a5a5" d="M 382.5,101.5 C 384.201,102.211 385.201,103.545 385.5,105.5C 383.799,104.789 382.799,103.455 382.5,101.5 Z"/></g>
<g><path style="opacity:1" fill="#adadab" d="M 252.5,105.5 C 252.771,107.38 252.104,108.713 250.5,109.5C 250.66,107.847 251.326,106.514 252.5,105.5 Z"/></g>
<g><path style="opacity:1" fill="#a2a3a1" d="M 385.5,106.5 C 388.599,108.654 390.266,111.654 390.5,115.5C 388.44,112.76 386.774,109.76 385.5,106.5 Z"/></g>
<g><path style="opacity:1" fill="#b2b2b1" d="M 250.5,109.5 C 250.008,111.819 249.008,113.819 247.5,115.5C 247.461,112.911 248.461,110.911 250.5,109.5 Z"/></g>
<g><path style="opacity:1" fill="#949493" d="M 390.5,115.5 C 392.741,116.3 393.741,117.966 393.5,120.5C 392.263,119.035 391.263,117.368 390.5,115.5 Z"/></g>
<g><path style="opacity:1" fill="#abaaaa" d="M 247.5,115.5 C 247.068,116.71 246.401,117.71 245.5,118.5C 245.285,116.821 245.952,115.821 247.5,115.5 Z"/></g>
<g><path style="opacity:1" fill="#8e8d8c" d="M 393.5,120.5 C 395.048,120.821 395.715,121.821 395.5,123.5C 394.599,122.71 393.932,121.71 393.5,120.5 Z"/></g>
<g><path style="opacity:1" fill="#919090" d="M 244.5,119.5 C 244.34,121.153 243.674,122.486 242.5,123.5C 242.229,121.62 242.896,120.287 244.5,119.5 Z"/></g>
<g><path style="opacity:1" fill="#777574" d="M 242.5,123.5 C 242.068,124.71 241.401,125.71 240.5,126.5C 240.285,124.821 240.952,123.821 242.5,123.5 Z"/></g>
<g><path style="opacity:1" fill="#878685" d="M 396.5,125.5 C 398.741,126.3 399.741,127.966 399.5,130.5C 398.263,129.035 397.263,127.368 396.5,125.5 Z"/></g>
<g><path style="opacity:1" fill="#969696" d="M 240.5,126.5 C 240.02,129.005 239.02,131.338 237.5,133.5C 237.043,134.298 236.376,134.631 235.5,134.5C 236.437,131.323 238.104,128.657 240.5,126.5 Z"/></g>
<g><path style="opacity:1" fill="#929392" d="M 399.5,130.5 C 401.408,131.486 402.408,133.152 402.5,135.5C 400.953,134.232 399.953,132.565 399.5,130.5 Z"/></g>
<g><path style="opacity:1" fill="#acacab" d="M 402.5,135.5 C 404.539,136.911 405.539,138.911 405.5,141.5C 403.992,139.819 402.992,137.819 402.5,135.5 Z"/></g>
<g><path style="opacity:1" fill="#9e9d9c" d="M 235.5,134.5 C 234.68,138.302 233.014,141.636 230.5,144.5C 231.32,140.698 232.986,137.364 235.5,134.5 Z"/></g>
<g><path style="opacity:1" fill="#737371" d="M 405.5,141.5 C 408.845,143.02 410.511,145.687 410.5,149.5C 408.847,146.869 407.181,144.203 405.5,141.5 Z"/></g>
<g><path style="opacity:1" fill="#a7a7a6" d="M 230.5,144.5 C 230.047,146.565 229.047,148.232 227.5,149.5C 227.592,147.152 228.592,145.486 230.5,144.5 Z"/></g>
<g><path style="opacity:1" fill="#000000" d="M 1206.5,204.5 C 1205.17,212.974 1204.5,221.807 1204.5,231C 1204.5,240.006 1204.83,248.84 1205.5,257.5C 1204.66,262.675 1206,267.008 1209.5,270.5C 1209.14,268.411 1208.48,266.411 1207.5,264.5C 1206.5,244.845 1206.17,225.178 1206.5,205.5C 1216.35,205.827 1226.01,205.494 1235.5,204.5C 1236.33,196.677 1236.83,188.677 1237,180.5C 1237.67,188.833 1237.67,197.167 1237,205.5C 1236.5,206 1236,206.5 1235.5,207C 1226.51,207.5 1217.51,207.666 1208.5,207.5C 1208.04,227.234 1208.54,246.901 1210,266.5C 1211.88,270.471 1215.05,272.637 1219.5,273C 1223.71,273.221 1227.71,273.388 1231.5,273.5C 1226.35,274.327 1221.02,274.827 1215.5,275C 1221.56,276.993 1227.56,276.827 1233.5,274.5C 1234.81,282.725 1234.81,290.892 1233.5,299C 1220.65,301.669 1207.98,301.502 1195.5,298.5C 1193.54,297.508 1191.54,296.508 1189.5,295.5C 1189.03,294.094 1188.03,293.427 1186.5,293.5C 1186.5,292.167 1185.83,291.5 1184.5,291.5C 1183.74,289.632 1182.74,287.965 1181.5,286.5C 1180.87,284.25 1179.87,282.25 1178.5,280.5C 1178.5,279.833 1178.5,279.167 1178.5,278.5C 1177.52,253.878 1177.19,229.211 1177.5,204.5C 1171.17,204.5 1164.83,204.5 1158.5,204.5C 1159.78,197.303 1159.78,190.136 1158.5,183C 1159,182.5 1159.5,182 1160,181.5C 1165.6,182.825 1171.1,182.825 1176.5,181.5C 1177.49,172.348 1177.83,163.015 1177.5,153.5C 1179.74,153.795 1181.74,153.461 1183.5,152.5C 1187.14,151.92 1190.81,151.42 1194.5,151C 1195.42,150.722 1196.08,150.222 1196.5,149.5C 1197.5,149.5 1198.5,149.5 1199.5,149.5C 1201.51,148.986 1203.51,148.82 1205.5,149C 1204.18,159.772 1204.18,170.605 1205.5,181.5C 1215.03,182.823 1224.53,182.823 1234,181.5C 1234.5,189.159 1234.67,196.826 1234.5,204.5C 1225.17,204.5 1215.83,204.5 1206.5,204.5 Z"/></g>
<g><path style="opacity:1" fill="#737272" d="M 410.5,149.5 C 412.048,149.821 412.715,150.821 412.5,152.5C 411.599,151.71 410.932,150.71 410.5,149.5 Z"/></g>
<g><path style="opacity:1" fill="#8a8a89" d="M 227.5,149.5 C 227.068,150.71 226.401,151.71 225.5,152.5C 225.285,150.821 225.952,149.821 227.5,149.5 Z"/></g>
<g><path style="opacity:1" fill="#a5a5a3" d="M 1196.5,149.5 C 1196.08,150.222 1195.42,150.722 1194.5,151C 1190.81,151.42 1187.14,151.92 1183.5,152.5C 1183.61,151.883 1183.94,151.383 1184.5,151C 1188.53,150.608 1192.53,150.108 1196.5,149.5 Z"/></g>
<g><path style="opacity:1" fill="#bdbdbc" d="M 412.5,152.5 C 413.674,153.514 414.34,154.847 414.5,156.5C 412.896,155.713 412.229,154.38 412.5,152.5 Z"/></g>
<g><path style="opacity:1" fill="#babab9" d="M 1183.5,152.5 C 1181.74,153.461 1179.74,153.795 1177.5,153.5C 1177.83,163.015 1177.49,172.348 1176.5,181.5C 1176.5,181.167 1176.5,180.833 1176.5,180.5C 1176.5,171.167 1176.5,161.833 1176.5,152.5C 1178.83,152.5 1181.17,152.5 1183.5,152.5 Z"/></g>
<g><path style="opacity:1" fill="#7f807f" d="M 224.5,155.5 C 222.819,158.203 221.153,160.869 219.5,163.5C 219.489,159.687 221.155,157.02 224.5,155.5 Z"/></g>
<g><path style="opacity:1" fill="#b1b1b1" d="M 414.5,156.5 C 415.974,157.436 416.974,158.77 417.5,160.5C 415.554,159.965 414.554,158.632 414.5,156.5 Z"/></g>
<g><path style="opacity:1" fill="#a3a2a0" d="M 1235.5,204.5 C 1226.01,205.494 1216.35,205.827 1206.5,205.5C 1206.5,205.167 1206.5,204.833 1206.5,204.5C 1215.83,204.5 1225.17,204.5 1234.5,204.5C 1234.67,196.826 1234.5,189.159 1234,181.5C 1224.53,182.823 1215.03,182.823 1205.5,181.5C 1204.18,170.605 1204.18,159.772 1205.5,149C 1203.51,148.82 1201.51,148.986 1199.5,149.5C 1201.28,147.656 1203.61,146.99 1206.5,147.5C 1206.5,158.5 1206.5,169.5 1206.5,180.5C 1216.17,180.5 1225.83,180.5 1235.5,180.5C 1235.5,188.5 1235.5,196.5 1235.5,204.5 Z"/></g>
<g><path style="opacity:1" fill="#81807f" d="M 219.5,163.5 C 219.068,164.71 218.401,165.71 217.5,166.5C 217.285,164.821 217.952,163.821 219.5,163.5 Z"/></g>
<g><path style="opacity:1" fill="#8c8c8a" d="M 417.5,160.5 C 420.298,163.208 421.965,166.542 422.5,170.5C 419.986,167.636 418.32,164.302 417.5,160.5 Z"/></g>
<g><path style="opacity:1" fill="#90908e" d="M 333.5,171.5 C 329.403,169.119 325.07,167.285 320.5,166C 317.779,165.398 315.113,165.565 312.5,166.5C 312.611,165.883 312.944,165.383 313.5,165C 321.248,164.05 327.915,166.217 333.5,171.5 Z"/></g>
<g><path style="opacity:1" fill="#b5b5b4" d="M 310.5,166.5 C 309.341,168.25 307.674,169.25 305.5,169.5C 306.659,167.75 308.326,166.75 310.5,166.5 Z"/></g>
<g><path style="opacity:1" fill="#c6c6c6" d="M 217.5,166.5 C 217.715,168.179 217.048,169.179 215.5,169.5C 215.932,168.29 216.599,167.29 217.5,166.5 Z"/></g>
<g><path style="opacity:1" fill="#999999" d="M 422.5,170.5 C 424.048,170.821 424.715,171.821 424.5,173.5C 423.599,172.71 422.932,171.71 422.5,170.5 Z"/></g>
<g><path style="opacity:1" fill="#a3a19f" d="M 333.5,171.5 C 336.908,172.578 338.908,174.911 339.5,178.5C 337.477,176.147 335.477,173.814 333.5,171.5 Z"/></g>
<g><path style="opacity:1" fill="#999999" d="M 215.5,170.5 C 213.332,175.509 210.665,180.176 207.5,184.5C 207.519,182.94 207.852,181.44 208.5,180C 210.29,176.307 212.623,173.14 215.5,170.5 Z"/></g>
<g><path style="opacity:1" fill="#858584" d="M 425.5,175.5 C 427.048,175.821 427.715,176.821 427.5,178.5C 426.599,177.71 425.932,176.71 425.5,175.5 Z"/></g>
<g><path style="opacity:1" fill="#959594" d="M 755.5,178.5 C 746.833,177.167 738.167,177.167 729.5,178.5C 733.445,177.175 737.778,176.508 742.5,176.5C 747.222,176.508 751.555,177.175 755.5,178.5 Z"/></g>
<g><path style="opacity:1" fill="#9d9d9c" d="M 893.5,178.5 C 882.22,176.532 871.22,177.532 860.5,181.5C 863.118,179.563 866.118,178.063 869.5,177C 877.167,176.333 884.833,176.333 892.5,177C 893.056,177.383 893.389,177.883 893.5,178.5 Z"/></g>
<g><path style="opacity:1" fill="#000000" d="M 755.5,178.5 C 760.223,179.853 764.889,181.519 769.5,183.5C 770.436,184.974 771.77,185.974 773.5,186.5C 773.833,186.5 774.167,186.5 774.5,186.5C 774.821,188.048 775.821,188.715 777.5,188.5C 779.5,191.167 781.833,193.5 784.5,195.5C 785.34,197.853 786.674,199.853 788.5,201.5C 788.932,202.71 789.599,203.71 790.5,204.5C 790.654,206.97 791.654,208.97 793.5,210.5C 793.263,211.791 793.596,212.791 794.5,213.5C 795.257,216.99 796.257,220.323 797.5,223.5C 798.764,235.439 798.764,247.106 797.5,258.5C 797.5,258.833 797.5,259.167 797.5,259.5C 796.883,259.611 796.383,259.944 796,260.5C 795.599,263.699 794.766,266.699 793.5,269.5C 791.654,271.03 790.654,273.03 790.5,275.5C 789.599,276.29 788.932,277.29 788.5,278.5C 789.167,278.5 789.833,278.5 790.5,278.5C 788.672,282.842 785.839,286.509 782,289.5C 781.667,288.833 781.333,288.167 781,287.5C 779.583,288.078 778.75,289.078 778.5,290.5C 775.296,291.383 772.629,293.05 770.5,295.5C 754.994,303.552 738.994,304.552 722.5,298.5C 720.75,297.13 718.75,296.13 716.5,295.5C 716.158,294.662 715.492,294.328 714.5,294.5C 712.909,292.367 710.909,290.701 708.5,289.5C 708.557,290.609 708.89,291.609 709.5,292.5C 708.504,292.586 707.671,292.252 707,291.5C 706.667,310.833 706.333,330.167 706,349.5C 705.5,350 705,350.5 704.5,351C 693.505,351.5 682.505,351.667 671.5,351.5C 671.333,294.499 671.5,237.499 672,180.5C 672.75,179.874 673.584,179.374 674.5,179C 684.167,178.333 693.833,178.333 703.5,179C 704,179.5 704.5,180 705,180.5C 703.64,194.774 706.807,196.441 714.5,185.5C 717.004,184.416 719.337,183.083 721.5,181.5C 724.354,180.795 727.021,179.795 729.5,178.5C 738.167,177.167 746.833,177.167 755.5,178.5 Z"/></g>
<g><path style="opacity:1" fill="#000000" d="M 893.5,178.5 C 893.833,178.5 894.167,178.5 894.5,178.5C 897.368,179.64 900.368,180.64 903.5,181.5C 905.25,182.87 907.25,183.87 909.5,184.5C 910.514,185.674 911.847,186.34 913.5,186.5C 913.5,187.167 913.833,187.5 914.5,187.5C 917.129,190.631 919.962,193.631 923,196.5C 923.464,195.906 923.631,195.239 923.5,194.5C 925.493,195.147 927.159,196.813 928.5,199.5C 927.233,198.913 926.233,198.913 925.5,199.5C 926.5,201.813 927.834,203.813 929.5,205.5C 940.165,228.161 940.165,250.828 929.5,273.5C 928.263,274.965 927.263,276.632 926.5,278.5C 924.674,280.147 923.34,282.147 922.5,284.5C 918.5,287.833 914.5,291.167 910.5,294.5C 908.821,294.285 907.821,294.952 907.5,296.5C 902.203,298.559 896.87,300.226 891.5,301.5C 881.179,303.398 871.179,302.398 861.5,298.5C 860.791,297.596 859.791,297.263 858.5,297.5C 857.71,296.599 856.71,295.932 855.5,295.5C 854.341,293.75 852.674,292.75 850.5,292.5C 849.5,290.833 848.167,289.5 846.5,288.5C 846.306,286.088 844.973,285.088 842.5,285.5C 842.5,306.5 842.5,327.5 842.5,348.5C 833.167,348.5 823.833,348.5 814.5,348.5C 814.5,292.833 814.5,237.167 814.5,181.5C 823,182.819 831.5,182.819 840,181.5C 841.437,185.972 841.937,190.639 841.5,195.5C 845.055,194.946 847.388,192.946 848.5,189.5C 849.167,189.5 849.5,189.167 849.5,188.5C 851.404,188.262 852.738,187.262 853.5,185.5C 854.492,185.672 855.158,185.338 855.5,184.5C 856.71,184.068 857.71,183.401 858.5,182.5C 859.492,182.672 860.158,182.338 860.5,181.5C 871.22,177.532 882.22,176.532 893.5,178.5 Z"/></g>
<g><path style="opacity:1" fill="#6c6b69" d="M 1311.5,178.5 C 1311.17,178.5 1310.83,178.5 1310.5,178.5C 1307.83,178.5 1305.17,178.5 1302.5,178.5C 1301.83,178.5 1301.17,178.5 1300.5,178.5C 1304.17,175.833 1307.83,175.833 1311.5,178.5 Z"/></g>
<g><path style="opacity:1" fill="#9a9999" d="M 298.5,176.5 C 298.446,178.632 297.446,179.965 295.5,180.5C 296.026,178.77 297.026,177.436 298.5,176.5 Z"/></g>
<g><path style="opacity:1" fill="#000000" d="M 603.5,181.5 C 605.25,182.87 607.25,183.87 609.5,184.5C 610.29,185.401 611.29,186.068 612.5,186.5C 613.222,187.551 614.222,188.218 615.5,188.5C 617.575,191.242 619.909,193.576 622.5,195.5C 622.56,196.043 622.893,196.376 623.5,196.5C 624.049,191.356 624.882,186.356 626,181.5C 634.5,182.819 643,182.819 651.5,181.5C 651.5,220.833 651.5,260.167 651.5,299.5C 642.5,299.5 633.5,299.5 624.5,299.5C 624.827,294.456 624.494,289.456 623.5,284.5C 622.478,284.855 621.811,285.522 621.5,286.5C 620.167,287.167 619.167,288.167 618.5,289.5C 616.091,290.701 614.091,292.367 612.5,294.5C 596.522,303.574 579.855,304.908 562.5,298.5C 560.75,297.13 558.75,296.13 556.5,295.5C 555.486,294.326 554.153,293.66 552.5,293.5C 550.877,291.049 548.711,289.049 546,287.5C 545.536,288.094 545.369,288.761 545.5,289.5C 542.949,289.332 542.282,288.332 543.5,286.5C 544.087,284.315 543.087,282.648 540.5,281.5C 527.322,259.785 524.989,236.785 533.5,212.5C 535.147,209.205 536.814,205.872 538.5,202.5C 539.167,202.5 539.5,202.167 539.5,201.5C 541.054,200.086 542.388,198.419 543.5,196.5C 543.03,195.537 542.363,195.537 541.5,196.5C 541.062,196.565 540.728,196.399 540.5,196C 542,194.5 543.5,193 545,191.5C 545.399,191.728 545.565,192.062 545.5,192.5C 544.697,193.423 544.53,194.423 545,195.5C 546.039,194.756 546.539,193.756 546.5,192.5C 546.833,192.5 547.167,192.5 547.5,192.5C 548.5,192.167 549.167,191.5 549.5,190.5C 551.23,189.974 552.564,188.974 553.5,187.5C 554.71,187.068 555.71,186.401 556.5,185.5C 557.492,185.672 558.158,185.338 558.5,184.5C 573.137,178.296 588.137,177.296 603.5,181.5 Z"/></g>
<g><path style="opacity:1" fill="#b1b0b0" d="M 603.5,181.5 C 588.137,177.296 573.137,178.296 558.5,184.5C 561.454,182.488 564.787,180.821 568.5,179.5C 579.171,176.906 589.838,176.906 600.5,179.5C 602.03,179.64 603.03,180.307 603.5,181.5 Z"/></g>
<g><path style="opacity:1" fill="#000000" d="M 1302.5,178.5 C 1305.17,178.5 1307.83,178.5 1310.5,178.5C 1315.34,179.434 1320.34,180.268 1325.5,181C 1329.57,182.742 1333.57,184.575 1337.5,186.5C 1338.44,187.974 1339.77,188.974 1341.5,189.5C 1344.28,192.736 1347.28,195.736 1350.5,198.5C 1351.03,200.23 1352.03,201.564 1353.5,202.5C 1354.13,204.75 1355.13,206.75 1356.5,208.5C 1356.91,210.887 1357.91,212.887 1359.5,214.5C 1359.39,215.117 1359.06,215.617 1358.5,216C 1362.09,226.126 1363.76,236.626 1363.5,247.5C 1334.17,247.5 1304.83,247.5 1275.5,247.5C 1275.68,254.25 1277.68,260.25 1281.5,265.5C 1283.17,267.833 1285.17,269.833 1287.5,271.5C 1287.97,272.906 1288.97,273.573 1290.5,273.5C 1291.17,273.833 1291.83,274.167 1292.5,274.5C 1293.93,275.537 1295.6,276.204 1297.5,276.5C 1298.26,277.268 1299.26,277.768 1300.5,278C 1303.83,278.167 1307.17,278.333 1310.5,278.5C 1315.76,278.666 1320.76,277.999 1325.5,276.5C 1328.1,275.945 1330.43,274.945 1332.5,273.5C 1334.67,273.25 1336.34,272.25 1337.5,270.5C 1339.23,269.883 1340.73,268.883 1342,267.5C 1342.71,268.381 1343.54,269.047 1344.5,269.5C 1345.03,271.23 1346.03,272.564 1347.5,273.5C 1348.03,275.23 1349.03,276.564 1350.5,277.5C 1351.16,279.487 1352.33,281.154 1354,282.5C 1354.58,283.928 1354.41,285.262 1353.5,286.5C 1352.83,286.5 1352.5,286.833 1352.5,287.5C 1349.6,288.398 1347.27,290.065 1345.5,292.5C 1343,293.301 1341,294.634 1339.5,296.5C 1339.17,296.5 1338.83,296.5 1338.5,296.5C 1316.95,306.033 1295.61,305.699 1274.5,295.5C 1272.05,292.769 1269.05,290.769 1265.5,289.5C 1263.87,288.028 1262.37,286.362 1261,284.5C 1260.04,286.709 1258.88,286.543 1257.5,284C 1258.17,283.667 1258.83,283.333 1259.5,283C 1258.6,281.348 1257.6,279.848 1256.5,278.5C 1255.97,276.77 1254.97,275.436 1253.5,274.5C 1253.34,272.847 1252.67,271.514 1251.5,270.5C 1251.67,269.508 1251.34,268.842 1250.5,268.5C 1243.58,249.636 1243.92,230.97 1251.5,212.5C 1252.67,211.486 1253.34,210.153 1253.5,208.5C 1254.97,207.564 1255.97,206.23 1256.5,204.5C 1259.76,199.898 1263.43,195.565 1267.5,191.5C 1271.84,189.668 1275.84,187.335 1279.5,184.5C 1286.91,181.325 1294.57,179.325 1302.5,178.5 Z"/></g>
<g><path style="opacity:1" fill="#aeaead" d="M 729.5,178.5 C 727.021,179.795 724.354,180.795 721.5,181.5C 723.522,179.307 726.189,178.307 729.5,178.5 Z"/></g>
<g><path style="opacity:1" fill="#a7a7a6" d="M 755.5,178.5 C 760.971,178.353 765.637,180.02 769.5,183.5C 764.889,181.519 760.223,179.853 755.5,178.5 Z"/></g>
<g><path style="opacity:1" fill="#a7a7a7" d="M 894.5,178.5 C 898.159,178.149 901.159,179.149 903.5,181.5C 900.368,180.64 897.368,179.64 894.5,178.5 Z"/></g>
<g><path style="opacity:1" fill="#000000" d="M 1005.5,206.5 C 1002.51,206.903 999.848,207.903 997.5,209.5C 996.833,209.5 996.5,209.833 996.5,210.5C 994.62,210.229 993.287,210.896 992.5,212.5C 990.5,213.833 988.833,215.5 987.5,217.5C 985.738,218.262 984.738,219.596 984.5,221.5C 983.188,223.696 982.021,226.03 981,228.5C 980.5,252.164 980.333,275.831 980.5,299.5C 971.167,299.5 961.833,299.5 952.5,299.5C 952.5,260.167 952.5,220.833 952.5,181.5C 961,182.819 969.5,182.819 978,181.5C 978.717,182.044 979.217,182.711 979.5,183.5C 978.357,186.976 978.19,190.642 979,194.5C 979.414,194.957 979.914,195.291 980.5,195.5C 983.854,191.479 987.521,187.812 991.5,184.5C 999.726,180.799 1008.39,179.132 1017.5,179.5C 1017.5,188.167 1017.5,196.833 1017.5,205.5C 1013.3,205.183 1009.3,205.517 1005.5,206.5 Z"/></g>
<g><path style="opacity:1" fill="#a6a6a5" d="M 1300.5,178.5 C 1301.17,178.5 1301.83,178.5 1302.5,178.5C 1294.57,179.325 1286.91,181.325 1279.5,184.5C 1285.54,179.939 1292.54,177.939 1300.5,178.5 Z"/></g>
<g><path style="opacity:1" fill="#898887" d="M 674.5,181.5 C 683.986,180.506 693.652,180.173 703.5,180.5C 703.666,185.511 703.499,190.511 703,195.5C 702.941,190.652 702.274,185.985 701,181.5C 692.5,182.819 684,182.819 675.5,181.5C 675.167,181.5 674.833,181.5 674.5,181.5 Z"/></g>
<g><path style="opacity:1" fill="#8c8c8b" d="M 951.5,181.5 C 960.986,180.506 970.652,180.173 980.5,180.5C 980.817,184.702 980.483,188.702 979.5,192.5C 979.5,189.5 979.5,186.5 979.5,183.5C 979.217,182.711 978.717,182.044 978,181.5C 969.5,182.819 961,182.819 952.5,181.5C 952.167,181.5 951.833,181.5 951.5,181.5 Z"/></g>
<g><path style="opacity:1" fill="#979696" d="M 1065.5,193.5 C 1063.62,189.402 1061.45,185.402 1059,181.5C 1049.33,182.833 1039.67,182.833 1030,181.5C 1029.54,182.094 1029.37,182.761 1029.5,183.5C 1027.95,183.179 1027.29,182.179 1027.5,180.5C 1038.85,180.168 1050.19,180.501 1061.5,181.5C 1063.75,185.167 1065.09,189.167 1065.5,193.5 Z"/></g>
<g><path style="opacity:1" fill="#a0a09e" d="M 427.5,178.5 C 429.588,180.336 430.921,182.669 431.5,185.5C 429.412,183.664 428.079,181.331 427.5,178.5 Z"/></g>
<g><path style="opacity:1" fill="#afafae" d="M 1005.5,206.5 C 1009.3,205.517 1013.3,205.183 1017.5,205.5C 1017.5,196.833 1017.5,188.167 1017.5,179.5C 1008.39,179.132 999.726,180.799 991.5,184.5C 993.395,182.557 995.728,181.057 998.5,180C 1005.11,178.79 1011.78,178.29 1018.5,178.5C 1018.5,187.833 1018.5,197.167 1018.5,206.5C 1014.17,206.5 1009.83,206.5 1005.5,206.5 Z"/></g>
<g><path style="opacity:1" fill="#000000" d="M 1065.5,193.5 C 1065.76,196.272 1066.76,198.605 1068.5,200.5C 1068.5,201.167 1068.5,201.833 1068.5,202.5C 1072.38,211.491 1076.05,220.491 1079.5,229.5C 1079.99,230.995 1080.66,232.329 1081.5,233.5C 1082.44,237.332 1083.78,240.999 1085.5,244.5C 1086.75,249.94 1088.75,254.94 1091.5,259.5C 1091.5,259.833 1091.5,260.167 1091.5,260.5C 1091.52,262.028 1092.18,262.528 1093.5,262C 1094.24,260.185 1094.91,258.352 1095.5,256.5C 1096.96,252.125 1098.63,247.792 1100.5,243.5C 1100.5,242.833 1100.5,242.167 1100.5,241.5C 1102.09,239.887 1103.09,237.887 1103.5,235.5C 1103.5,234.833 1103.5,234.167 1103.5,233.5C 1105.09,231.887 1106.09,229.887 1106.5,227.5C 1106.5,226.833 1106.5,226.167 1106.5,225.5C 1108.09,223.887 1109.09,221.887 1109.5,219.5C 1110.87,217.064 1111.87,214.397 1112.5,211.5C 1116.81,201.646 1120.98,191.646 1125,181.5C 1133.67,182.833 1142.33,182.833 1151,181.5C 1149.03,188.893 1146.53,196.226 1143.5,203.5C 1143.5,204.167 1143.5,204.833 1143.5,205.5C 1141.91,207.113 1140.91,209.113 1140.5,211.5C 1137.13,219.27 1134.13,227.27 1131.5,235.5C 1128.05,242.925 1125.05,250.591 1122.5,258.5C 1121.46,259.93 1120.8,261.597 1120.5,263.5C 1120.5,263.833 1120.5,264.167 1120.5,264.5C 1118.76,266.395 1117.76,268.728 1117.5,271.5C 1117.5,271.833 1117.5,272.167 1117.5,272.5C 1114.56,276.615 1112.56,281.282 1111.5,286.5C 1110.13,288.936 1109.13,291.603 1108.5,294.5C 1105.74,299.087 1103.74,304.087 1102.5,309.5C 1099.23,316.566 1096.56,323.9 1094.5,331.5C 1092.01,335.826 1090.01,340.492 1088.5,345.5C 1087.6,346.209 1087.26,347.209 1087.5,348.5C 1077.83,348.666 1068.16,348.5 1058.5,348C 1059.46,346.275 1060.13,344.441 1060.5,342.5C 1062.86,338.093 1064.86,333.426 1066.5,328.5C 1069.26,323.913 1071.26,318.913 1072.5,313.5C 1076.11,308.488 1077.61,302.821 1077,296.5C 1073.27,286.51 1069.11,276.843 1064.5,267.5C 1064.74,266.209 1064.4,265.209 1063.5,264.5C 1063.07,261.843 1062.07,259.509 1060.5,257.5C 1060.25,255.033 1059.25,253.033 1057.5,251.5C 1057.5,250.833 1057.5,250.167 1057.5,249.5C 1056.07,245.65 1054.41,241.983 1052.5,238.5C 1052.44,237.391 1052.11,236.391 1051.5,235.5C 1048.91,227.373 1045.58,219.706 1041.5,212.5C 1041.74,211.209 1041.4,210.209 1040.5,209.5C 1040.07,206.843 1039.07,204.509 1037.5,202.5C 1037.25,200.033 1036.25,198.033 1034.5,196.5C 1034.5,195.833 1034.5,195.167 1034.5,194.5C 1033.07,190.65 1031.41,186.983 1029.5,183.5C 1029.37,182.761 1029.54,182.094 1030,181.5C 1039.67,182.833 1049.33,182.833 1059,181.5C 1061.45,185.402 1063.62,189.402 1065.5,193.5 Z"/></g>
<g><path style="opacity:1" fill="#b5b5b4" d="M 1310.5,178.5 C 1310.83,178.5 1311.17,178.5 1311.5,178.5C 1321.47,177.582 1330.14,180.249 1337.5,186.5C 1333.57,184.575 1329.57,182.742 1325.5,181C 1320.34,180.268 1315.34,179.434 1310.5,178.5 Z"/></g>
<g><path style="opacity:1" fill="#a5a5a5" d="M 603.5,181.5 C 606.216,181.386 608.216,182.386 609.5,184.5C 607.25,183.87 605.25,182.87 603.5,181.5 Z"/></g>
<g><path style="opacity:1" fill="#a5a4a3" d="M 858.5,182.5 C 857.71,183.401 856.71,184.068 855.5,184.5C 855.821,182.952 856.821,182.285 858.5,182.5 Z"/></g>
<g><path style="opacity:1" fill="#a8a8a6" d="M 903.5,181.5 C 906.216,181.386 908.216,182.386 909.5,184.5C 907.25,183.87 905.25,182.87 903.5,181.5 Z"/></g>
<g><path style="opacity:1" fill="#4d4c4c" d="M 339.5,178.5 C 341.634,180.686 343.801,183.019 346,185.5C 346.791,186.745 347.291,188.078 347.5,189.5C 342.716,187.485 340.05,183.818 339.5,178.5 Z"/></g>
<g><path style="opacity:1" fill="#a7a7a6" d="M 721.5,181.5 C 719.337,183.083 717.004,184.416 714.5,185.5C 716.052,182.888 718.386,181.555 721.5,181.5 Z"/></g>
<g><path style="opacity:1" fill="#bcbcbc" d="M 609.5,184.5 C 611.179,184.285 612.179,184.952 612.5,186.5C 611.29,186.068 610.29,185.401 609.5,184.5 Z"/></g>
<g><path style="opacity:1" fill="#babab9" d="M 769.5,183.5 C 771.632,183.554 772.965,184.554 773.5,186.5C 771.77,185.974 770.436,184.974 769.5,183.5 Z"/></g>
<g><path style="opacity:1" fill="#a3a3a1" d="M 909.5,184.5 C 911.38,184.229 912.713,184.896 913.5,186.5C 911.847,186.34 910.514,185.674 909.5,184.5 Z"/></g>
<g><path style="opacity:1" fill="#a0a0a0" d="M 207.5,184.5 C 206.32,187.54 204.653,190.206 202.5,192.5C 202.98,189.995 203.98,187.662 205.5,185.5C 205.957,184.702 206.624,184.369 207.5,184.5 Z"/></g>
<g><path style="opacity:1" fill="#a1a1a1" d="M 295.5,180.5 C 295.155,183.198 293.822,185.198 291.5,186.5C 292.34,184.147 293.674,182.147 295.5,180.5 Z"/></g>
<g><path style="opacity:1" fill="#8d8e8c" d="M 556.5,185.5 C 555.71,186.401 554.71,187.068 553.5,187.5C 553.821,185.952 554.821,185.285 556.5,185.5 Z"/></g>
<g><path style="opacity:1" fill="#9d9c9b" d="M 814.5,181.5 C 823.652,180.506 832.985,180.173 842.5,180.5C 842.334,185.179 842.501,189.845 843,194.5C 844.704,192.627 846.537,190.96 848.5,189.5C 847.388,192.946 845.055,194.946 841.5,195.5C 841.937,190.639 841.437,185.972 840,181.5C 831.5,182.819 823,182.819 814.5,181.5 Z"/></g>
<g><path style="opacity:1" fill="#b0b1b0" d="M 853.5,185.5 C 852.738,187.262 851.404,188.262 849.5,188.5C 850.262,186.738 851.596,185.738 853.5,185.5 Z"/></g>
<g><path style="opacity:1" fill="#c2c1c0" d="M 774.5,186.5 C 775.71,186.932 776.71,187.599 777.5,188.5C 775.821,188.715 774.821,188.048 774.5,186.5 Z"/></g>
<g><path style="opacity:1" fill="#a4a4a4" d="M 814.5,181.5 C 814.5,237.167 814.5,292.833 814.5,348.5C 823.833,348.5 833.167,348.5 842.5,348.5C 842.833,348.5 843.167,348.5 843.5,348.5C 833.681,349.494 823.681,349.827 813.5,349.5C 813.168,293.331 813.501,237.331 814.5,181.5 Z"/></g>
<g><path style="opacity:1" fill="#b1b0ae" d="M 1337.5,186.5 C 1339.63,186.554 1340.97,187.554 1341.5,189.5C 1339.77,188.974 1338.44,187.974 1337.5,186.5 Z"/></g>
<g><path style="opacity:1" fill="#9d9d9c" d="M 553.5,187.5 C 552.564,188.974 551.23,189.974 549.5,190.5C 550.035,188.554 551.368,187.554 553.5,187.5 Z"/></g>
<g><path style="opacity:1" fill="#8e8e8d" d="M 615.5,188.5 C 618.811,189.811 621.145,192.145 622.5,195.5C 619.909,193.576 617.575,191.242 615.5,188.5 Z"/></g>
<g><path style="opacity:1" fill="#9c9b9a" d="M 652.5,181.5 C 652.167,181.5 651.833,181.5 651.5,181.5C 643,182.819 634.5,182.819 626,181.5C 624.882,186.356 624.049,191.356 623.5,196.5C 622.893,196.376 622.56,196.043 622.5,195.5C 623.487,190.695 623.821,185.695 623.5,180.5C 633.348,180.173 643.014,180.506 652.5,181.5 Z"/></g>
<g><path style="opacity:1" fill="#969695" d="M 1143.5,203.5 C 1146.53,196.226 1149.03,188.893 1151,181.5C 1142.33,182.833 1133.67,182.833 1125,181.5C 1120.98,191.646 1116.81,201.646 1112.5,211.5C 1115.17,200.988 1118.84,190.821 1123.5,181C 1133.49,180.5 1143.49,180.334 1153.5,180.5C 1151.65,186.209 1149.65,191.876 1147.5,197.5C 1146.62,199.977 1145.28,201.977 1143.5,203.5 Z"/></g>
<g><path style="opacity:1" fill="#7c7c7a" d="M 1029.5,183.5 C 1031.41,186.983 1033.07,190.65 1034.5,194.5C 1031,191.819 1029.33,188.152 1029.5,183.5 Z"/></g>
<g><path style="opacity:1" fill="#9fa09e" d="M 1279.5,184.5 C 1275.84,187.335 1271.84,189.668 1267.5,191.5C 1270.75,187.925 1274.75,185.592 1279.5,184.5 Z"/></g>
<g><path style="opacity:1" fill="#959595" d="M 291.5,186.5 C 291.262,189.069 289.929,190.735 287.5,191.5C 288.124,189.246 289.457,187.579 291.5,186.5 Z"/></g>
<g><path style="opacity:1" fill="#c4c3c4" d="M 549.5,190.5 C 549.167,191.5 548.5,192.167 547.5,192.5C 547.5,191.167 548.167,190.5 549.5,190.5 Z"/></g>
<g><path style="opacity:1" fill="#a4a4a2" d="M 914.5,187.5 C 917.767,189.427 920.767,191.761 923.5,194.5C 923.631,195.239 923.464,195.906 923,196.5C 919.962,193.631 917.129,190.631 914.5,187.5 Z"/></g>
<g><path style="opacity:1" fill="#90908e" d="M 348.5,190.5 C 349.974,191.436 350.974,192.77 351.5,194.5C 349.554,193.965 348.554,192.632 348.5,190.5 Z"/></g>
<g><path style="opacity:1" fill="#b4b4b2" d="M 287.5,191.5 C 287.34,193.153 286.674,194.486 285.5,195.5C 285.229,193.62 285.896,192.287 287.5,191.5 Z"/></g>
<g><path style="opacity:1" fill="#b5b6b5" d="M 545.5,192.5 C 545.833,192.5 546.167,192.5 546.5,192.5C 546.539,193.756 546.039,194.756 545,195.5C 544.53,194.423 544.697,193.423 545.5,192.5 Z"/></g>
<g><path style="opacity:1" fill="#b6b6b4" d="M 979.5,183.5 C 979.5,186.5 979.5,189.5 979.5,192.5C 982.277,191.304 984.944,189.137 987.5,186C 988.745,185.209 990.078,184.709 991.5,184.5C 987.521,187.812 983.854,191.479 980.5,195.5C 979.914,195.291 979.414,194.957 979,194.5C 978.19,190.642 978.357,186.976 979.5,183.5 Z"/></g>
<g><path style="opacity:1" fill="#838382" d="M 431.5,185.5 C 435.198,189.56 437.864,194.227 439.5,199.5C 436.331,195.167 433.664,190.5 431.5,185.5 Z"/></g>
<g><path style="opacity:1" fill="#969594" d="M 1176.5,180.5 C 1176.5,180.833 1176.5,181.167 1176.5,181.5C 1171.1,182.825 1165.6,182.825 1160,181.5C 1159.5,182 1159,182.5 1158.5,183C 1159.78,190.136 1159.78,197.303 1158.5,204.5C 1157.34,197.011 1157.18,189.345 1158,181.5C 1164.08,180.524 1170.24,180.19 1176.5,180.5 Z"/></g>
<g><path style="opacity:1" fill="#999896" d="M 351.5,194.5 C 353.326,196.147 354.66,198.147 355.5,200.5C 353.178,199.198 351.845,197.198 351.5,194.5 Z"/></g>
<g><path style="opacity:1" fill="#9fa09f" d="M 539.5,201.5 C 539.893,199.716 540.559,198.05 541.5,196.5C 542.363,195.537 543.03,195.537 543.5,196.5C 542.388,198.419 541.054,200.086 539.5,201.5 Z"/></g>
<g><path style="opacity:1" fill="#969595" d="M 1341.5,189.5 C 1343.04,189.703 1344.38,190.37 1345.5,191.5C 1347.96,193.29 1349.63,195.623 1350.5,198.5C 1347.28,195.736 1344.28,192.736 1341.5,189.5 Z"/></g>
<g><path style="opacity:1" fill="#b2b1b0" d="M 201.5,194.5 C 201.047,196.565 200.047,198.232 198.5,199.5C 198.592,197.152 199.592,195.486 201.5,194.5 Z"/></g>
<g><path style="opacity:1" fill="#908e8e" d="M 784.5,195.5 C 787.034,196.634 788.367,198.634 788.5,201.5C 786.674,199.853 785.34,197.853 784.5,195.5 Z"/></g>
<g><path style="opacity:1" fill="#acacaa" d="M 1065.5,193.5 C 1067.24,195.395 1068.24,197.728 1068.5,200.5C 1066.76,198.605 1065.76,196.272 1065.5,193.5 Z"/></g>
<g><path style="opacity:1" fill="#878784" d="M 284.5,196.5 C 284.446,198.632 283.446,199.965 281.5,200.5C 281.738,198.596 282.738,197.262 284.5,196.5 Z"/></g>
<g><path style="opacity:1" fill="#969695" d="M 1350.5,198.5 C 1352.45,199.035 1353.45,200.368 1353.5,202.5C 1352.03,201.564 1351.03,200.23 1350.5,198.5 Z"/></g>
<g><path style="opacity:1" fill="#848584" d="M 439.5,199.5 C 441.408,200.486 442.408,202.152 442.5,204.5C 440.953,203.232 439.953,201.565 439.5,199.5 Z"/></g>
<g><path style="opacity:1" fill="#929291" d="M 198.5,199.5 C 196.332,204.509 193.665,209.176 190.5,213.5C 190.519,211.94 190.852,210.44 191.5,209C 193.29,205.307 195.623,202.14 198.5,199.5 Z"/></g>
<g><path style="opacity:1" fill="#989796" d="M 281.5,200.5 C 281.205,202.423 280.372,204.09 279,205.5C 278.751,203.332 279.584,201.665 281.5,200.5 Z"/></g>
<g><path style="opacity:1" fill="#888786" d="M 788.5,201.5 C 790.048,201.821 790.715,202.821 790.5,204.5C 789.599,203.71 788.932,202.71 788.5,201.5 Z"/></g>
<g><path style="opacity:1" fill="#7f7e7e" d="M 928.5,199.5 C 928.833,201.5 929.167,203.5 929.5,205.5C 927.834,203.813 926.5,201.813 925.5,199.5C 926.233,198.913 927.233,198.913 928.5,199.5 Z"/></g>
<g><path style="opacity:1" fill="#9d9c9a" d="M 1034.5,196.5 C 1036.25,198.033 1037.25,200.033 1037.5,202.5C 1035.75,200.967 1034.75,198.967 1034.5,196.5 Z"/></g>
<g><path style="opacity:1" fill="#9a9a99" d="M 1317.5,203.5 C 1307.76,201.479 1298.42,202.479 1289.5,206.5C 1292.12,204.415 1295.12,202.915 1298.5,202C 1303.83,201.333 1309.17,201.333 1314.5,202C 1315.74,202.232 1316.74,202.732 1317.5,203.5 Z"/></g>
<g><path style="opacity:1" fill="#979393" d="M 355.5,200.5 C 356.906,200.973 357.573,201.973 357.5,203.5C 355.952,203.179 355.285,202.179 355.5,200.5 Z"/></g>
<g><path style="opacity:1" fill="#9d9c9c" d="M 603.5,206.5 C 595.174,205.203 586.84,205.203 578.5,206.5C 579.263,205.732 580.263,205.232 581.5,205C 588.167,204.333 594.833,204.333 601.5,205C 602.416,205.278 603.082,205.778 603.5,206.5 Z"/></g>
<g><path style="opacity:1" fill="#9d9c9c" d="M 752.5,208.5 C 750.297,208.396 748.297,207.73 746.5,206.5C 739.187,205.247 731.854,205.247 724.5,206.5C 725.263,205.732 726.263,205.232 727.5,205C 733.5,204.333 739.5,204.333 745.5,205C 748.174,205.67 750.507,206.837 752.5,208.5 Z"/></g>
<g><path style="opacity:1" fill="#a09f9f" d="M 887.5,206.5 C 879.167,205.167 870.833,205.167 862.5,206.5C 863.263,205.732 864.263,205.232 865.5,205C 871.833,204.333 878.167,204.333 884.5,205C 885.737,205.232 886.737,205.732 887.5,206.5 Z"/></g>
<g><path style="opacity:1" fill="#999998" d="M 1317.5,203.5 C 1319.46,203.799 1320.79,204.799 1321.5,206.5C 1319.54,206.201 1318.21,205.201 1317.5,203.5 Z"/></g>
<g><path style="opacity:1" fill="#9b9b9a" d="M 1353.5,202.5 C 1355.61,203.784 1356.61,205.784 1356.5,208.5C 1355.13,206.75 1354.13,204.75 1353.5,202.5 Z"/></g>
<g><path style="opacity:1" fill="#878785" d="M 442.5,204.5 C 444.048,204.821 444.715,205.821 444.5,207.5C 443.094,207.027 442.427,206.027 442.5,204.5 Z"/></g>
<g><path style="opacity:1" fill="#b3b3b3" d="M 1256.5,204.5 C 1255.97,206.23 1254.97,207.564 1253.5,208.5C 1253.55,206.368 1254.55,205.035 1256.5,204.5 Z"/></g>
<g><path style="opacity:1" fill="#11110f" d="M 1317.5,203.5 C 1318.21,205.201 1319.54,206.201 1321.5,206.5C 1321.83,206.5 1322.17,206.5 1322.5,206.5C 1323.42,209.089 1325.09,211.089 1327.5,212.5C 1328.17,212.5 1328.5,212.833 1328.5,213.5C 1330.91,218.155 1332.25,223.155 1332.5,228.5C 1313.83,228.667 1295.16,228.5 1276.5,228C 1277.48,223.217 1279.15,218.717 1281.5,214.5C 1284.5,212.167 1287.17,209.5 1289.5,206.5C 1298.42,202.479 1307.76,201.479 1317.5,203.5 Z"/></g>
<g><path style="opacity:1" fill="#868584" d="M 357.5,203.5 C 359.326,205.147 360.66,207.147 361.5,209.5C 359.178,208.198 357.845,206.198 357.5,203.5 Z"/></g>
<g><path style="opacity:1" fill="#9f9f9d" d="M 1037.5,202.5 C 1039.07,204.509 1040.07,206.843 1040.5,209.5C 1038.46,207.794 1037.46,205.461 1037.5,202.5 Z"/></g>
<g><path style="opacity:1" fill="#a6a6a5" d="M 578.5,206.5 C 577.341,208.25 575.674,209.25 573.5,209.5C 574.659,207.75 576.326,206.75 578.5,206.5 Z"/></g>
<g><path style="opacity:1" fill="#999996" d="M 603.5,206.5 C 605.153,206.66 606.486,207.326 607.5,208.5C 605.62,208.771 604.287,208.104 603.5,206.5 Z"/></g>
<g><path style="opacity:1" fill="#969695" d="M 724.5,206.5 C 722.967,208.245 720.967,209.245 718.5,209.5C 720.033,207.755 722.033,206.755 724.5,206.5 Z"/></g>
<g><path style="opacity:1" fill="#939290" d="M 887.5,206.5 C 888.71,206.932 889.71,207.599 890.5,208.5C 888.821,208.715 887.821,208.048 887.5,206.5 Z"/></g>
<g><path style="opacity:1" fill="#a9a8a8" d="M 1005.5,206.5 C 1003.3,208.397 1000.64,209.397 997.5,209.5C 999.848,207.903 1002.51,206.903 1005.5,206.5 Z"/></g>
<g><path style="opacity:1" fill="#898988" d="M 1068.5,202.5 C 1070.36,203.602 1071.69,205.269 1072.5,207.5C 1075.15,214.765 1077.48,222.098 1079.5,229.5C 1076.05,220.491 1072.38,211.491 1068.5,202.5 Z"/></g>
<g><path style="opacity:1" fill="#a6a6a5" d="M 1143.5,205.5 C 1143.38,208.105 1142.38,210.105 1140.5,211.5C 1140.91,209.113 1141.91,207.113 1143.5,205.5 Z"/></g>
<g><path style="opacity:1" fill="#a1a09d" d="M 1322.5,206.5 C 1324.91,207.911 1326.58,209.911 1327.5,212.5C 1325.09,211.089 1323.42,209.089 1322.5,206.5 Z"/></g>
<g><path style="opacity:1" fill="#7e7e7d" d="M 275.5,209.5 C 275.987,208.527 276.487,207.527 277,206.5C 277.725,208.157 277.225,209.157 275.5,209.5 Z"/></g>
<g><path style="opacity:1" fill="#969494" d="M 538.5,202.5 C 536.814,205.872 535.147,209.205 533.5,212.5C 533.592,208.316 535.259,204.983 538.5,202.5 Z"/></g>
<g><path style="opacity:1" fill="#ffffff" d="M 603.5,206.5 C 604.287,208.104 605.62,208.771 607.5,208.5C 608.492,208.328 609.158,208.662 609.5,209.5C 609.5,209.833 609.5,210.167 609.5,210.5C 608.448,210.351 607.448,210.517 606.5,211C 609.597,212.273 612.264,214.107 614.5,216.5C 614.967,219.297 616.633,220.631 619.5,220.5C 620.079,224.582 621.412,228.248 623.5,231.5C 623.582,238.858 623.248,246.191 622.5,253.5C 620.621,254.895 619.621,256.895 619.5,259.5C 617.952,259.821 617.285,260.821 617.5,262.5C 617.167,263.5 616.5,264.167 615.5,264.5C 613.5,265.833 611.833,267.5 610.5,269.5C 610.167,270.5 609.5,271.167 608.5,271.5C 606.821,271.285 605.821,271.952 605.5,273.5C 604.833,273.5 604.167,273.5 603.5,273.5C 595.167,274.833 586.833,274.833 578.5,273.5C 578.167,273.5 577.833,273.5 577.5,273.5C 576.789,271.799 575.455,270.799 573.5,270.5C 573.167,270.5 572.833,270.5 572.5,270.5C 570.882,268.215 568.882,266.215 566.5,264.5C 563.858,259.753 561.691,254.753 560,249.5C 556.772,233.994 560.938,220.994 572.5,210.5C 572.5,209.833 572.833,209.5 573.5,209.5C 575.674,209.25 577.341,208.25 578.5,206.5C 586.84,205.203 595.174,205.203 603.5,206.5 Z"/></g>
<g><path style="opacity:1" fill="#8f8e8d" d="M 862.5,206.5 C 861.514,208.408 859.848,209.408 857.5,209.5C 858.768,207.953 860.435,206.953 862.5,206.5 Z"/></g>
<g><path style="opacity:1" fill="#ffffff" d="M 887.5,206.5 C 887.821,208.048 888.821,208.715 890.5,208.5C 892.147,210.326 894.147,211.66 896.5,212.5C 896.5,214.5 897.5,215.5 899.5,215.5C 900.091,218.884 901.758,221.551 904.5,223.5C 904.5,223.833 904.5,224.167 904.5,224.5C 905.043,227.218 905.709,229.885 906.5,232.5C 907.598,242.706 905.931,252.373 901.5,261.5C 901.5,261.833 901.5,262.167 901.5,262.5C 900.504,262.586 899.671,262.252 899,261.5C 896.833,263.667 894.667,265.833 892.5,268C 893.252,268.671 893.586,269.504 893.5,270.5C 891.152,270.592 889.486,271.592 888.5,273.5C 888.167,273.5 887.833,273.5 887.5,273.5C 879.167,274.833 870.833,274.833 862.5,273.5C 860.967,271.755 858.967,270.755 856.5,270.5C 855.833,270.5 855.5,270.167 855.5,269.5C 855.167,268.5 854.5,267.833 853.5,267.5C 852.833,266.167 851.833,265.167 850.5,264.5C 850.062,264.565 849.728,264.399 849.5,264C 850.167,263.667 850.833,263.333 851.5,263C 848.404,258.973 846.237,254.473 845,249.5C 844.506,251.134 844.34,252.801 844.5,254.5C 844.167,254.5 843.833,254.5 843.5,254.5C 842.167,245.167 842.167,235.833 843.5,226.5C 845.379,225.105 846.379,223.105 846.5,220.5C 848.048,220.179 848.715,219.179 848.5,217.5C 850.194,215.139 852.194,213.139 854.5,211.5C 856.027,211.573 857.027,210.906 857.5,209.5C 859.848,209.408 861.514,208.408 862.5,206.5C 870.833,205.167 879.167,205.167 887.5,206.5 Z"/></g>
<g><path style="opacity:1" fill="#7d7c7b" d="M 1289.5,206.5 C 1287.17,209.5 1284.5,212.167 1281.5,214.5C 1283.17,210.833 1285.83,208.167 1289.5,206.5 Z"/></g>
<g><path style="opacity:1" fill="#ffffff" d="M 746.5,206.5 C 748.297,207.73 750.297,208.396 752.5,208.5C 753.167,208.5 753.5,208.833 753.5,209.5C 757.167,212.5 760.5,215.833 763.5,219.5C 763.75,221.674 764.75,223.341 766.5,224.5C 766.565,227.428 767.232,230.095 768.5,232.5C 768.492,240.562 767.825,248.562 766.5,256.5C 764.12,258.582 762.454,261.249 761.5,264.5C 760.5,266.167 759.167,267.5 757.5,268.5C 754.249,269.454 751.582,271.12 749.5,273.5C 748.791,274.404 747.791,274.737 746.5,274.5C 739.11,274.764 731.777,274.43 724.5,273.5C 723.833,273.5 723.167,273.5 722.5,273.5C 720.097,270.791 717.097,268.791 713.5,267.5C 713.5,265.5 712.5,264.5 710.5,264.5C 710.446,262.368 709.446,261.035 707.5,260.5C 707.5,260.167 707.5,259.833 707.5,259.5C 708.376,259.631 709.043,259.298 709.5,258.5C 703.79,245.277 704.29,232.277 711,219.5C 719.783,209.383 730.783,205.717 744,208.5C 744.995,207.934 745.828,207.267 746.5,206.5 Z"/></g>
<g><path style="opacity:1" fill="#a8a7a7" d="M 790.5,204.5 C 792.545,205.923 793.545,207.923 793.5,210.5C 791.654,208.97 790.654,206.97 790.5,204.5 Z"/></g>
<g><path style="opacity:1" fill="#868685" d="M 361.5,209.5 C 362.401,210.29 363.068,211.29 363.5,212.5C 361.952,212.179 361.285,211.179 361.5,209.5 Z"/></g>
<g><path style="opacity:1" fill="#929391" d="M 444.5,207.5 C 447.331,211.155 449.664,215.155 451.5,219.5C 448.142,216.121 445.809,212.121 444.5,207.5 Z"/></g>
<g><path style="opacity:1" fill="#a8a7a7" d="M 718.5,209.5 C 717.685,210.837 716.518,211.837 715,212.5C 715.033,210.522 716.2,209.522 718.5,209.5 Z"/></g>
<g><path style="opacity:1" fill="#949291" d="M 857.5,209.5 C 857.027,210.906 856.027,211.573 854.5,211.5C 854.973,210.094 855.973,209.427 857.5,209.5 Z"/></g>
<g><path style="opacity:1" fill="#9e9f9d" d="M 890.5,208.5 C 893.198,208.845 895.198,210.178 896.5,212.5C 894.147,211.66 892.147,210.326 890.5,208.5 Z"/></g>
<g><path style="opacity:1" fill="#adacab" d="M 1253.5,208.5 C 1253.34,210.153 1252.67,211.486 1251.5,212.5C 1251.23,210.62 1251.9,209.287 1253.5,208.5 Z"/></g>
<g><path style="opacity:1" fill="#9e9e9d" d="M 1356.5,208.5 C 1358.38,209.895 1359.38,211.895 1359.5,214.5C 1357.91,212.887 1356.91,210.887 1356.5,208.5 Z"/></g>
<g><path style="opacity:1" fill="#8f8e8d" d="M 572.5,210.5 C 560.938,220.994 556.772,233.994 560,249.5C 561.691,254.753 563.858,259.753 566.5,264.5C 560.172,257.926 557.172,249.926 557.5,240.5C 557.54,231.656 560.04,223.656 565,216.5C 567.106,213.882 569.606,211.882 572.5,210.5 Z"/></g>
<g><path style="opacity:1" fill="#969696" d="M 609.5,209.5 C 611.363,209.846 612.196,210.846 612,212.5C 611.005,211.934 610.172,211.267 609.5,210.5C 609.5,210.167 609.5,209.833 609.5,209.5 Z"/></g>
<g><path style="opacity:1" fill="#9c9b9a" d="M 996.5,210.5 C 995.486,211.674 994.153,212.34 992.5,212.5C 993.287,210.896 994.62,210.229 996.5,210.5 Z"/></g>
<g><path style="opacity:1" fill="#969695" d="M 275.5,209.5 C 275.408,211.848 274.408,213.514 272.5,214.5C 272.953,212.435 273.953,210.768 275.5,209.5 Z"/></g>
<g><path style="opacity:1" fill="#bcbbbb" d="M 651.5,181.5 C 651.833,181.5 652.167,181.5 652.5,181.5C 652.5,221.167 652.5,260.833 652.5,300.5C 642.833,300.5 633.167,300.5 623.5,300.5C 624.103,295.381 623.436,290.715 621.5,286.5C 621.811,285.522 622.478,284.855 623.5,284.5C 624.494,289.456 624.827,294.456 624.5,299.5C 633.5,299.5 642.5,299.5 651.5,299.5C 651.5,260.167 651.5,220.833 651.5,181.5 Z"/></g>
<g><path style="opacity:1" fill="#a0a09f" d="M 1112.5,211.5 C 1111.87,214.397 1110.87,217.064 1109.5,219.5C 1109.31,216.189 1110.31,213.522 1112.5,211.5 Z"/></g>
<g><path style="opacity:1" fill="#969695" d="M 753.5,209.5 C 758.5,211.167 761.833,214.5 763.5,219.5C 760.5,215.833 757.167,212.5 753.5,209.5 Z"/></g>
<g><path style="opacity:1" fill="#9b9c9a" d="M 896.5,212.5 C 897.833,213.167 898.833,214.167 899.5,215.5C 897.5,215.5 896.5,214.5 896.5,212.5 Z"/></g>
<g><path style="opacity:1" fill="#acadab" d="M 794.5,213.5 C 795.586,213.62 796.253,214.287 796.5,215.5C 797.269,218.115 797.603,220.781 797.5,223.5C 796.257,220.323 795.257,216.99 794.5,213.5 Z"/></g>
<g><path style="opacity:1" fill="#a6a5a4" d="M 1140.5,211.5 C 1140.32,214.216 1139.82,216.883 1139,219.5C 1136.19,224.863 1133.69,230.197 1131.5,235.5C 1134.13,227.27 1137.13,219.27 1140.5,211.5 Z"/></g>
<g><path style="opacity:1" fill="#979796" d="M 190.5,213.5 C 189.737,215.368 188.737,217.035 187.5,218.5C 187.259,215.966 188.259,214.3 190.5,213.5 Z"/></g>
<g><path style="opacity:1" fill="#454545" d="M 619.5,220.5 C 616.633,220.631 614.967,219.297 614.5,216.5C 613.913,215.233 613.913,214.233 614.5,213.5C 616.58,215.573 618.246,217.907 619.5,220.5 Z"/></g>
<g><path style="opacity:1" fill="#898987" d="M 707.5,220.5 C 708.722,217.439 710.555,214.773 713,212.5C 713.492,213.549 713.326,214.549 712.5,215.5C 711.031,217.513 709.364,219.18 707.5,220.5 Z"/></g>
<g><path style="opacity:1" fill="#807f80" d="M 187.5,218.5 C 187.068,219.71 186.401,220.71 185.5,221.5C 185.285,219.821 185.952,218.821 187.5,218.5 Z"/></g>
<g><path style="opacity:1" fill="#8b8b8a" d="M 848.5,217.5 C 848.715,219.179 848.048,220.179 846.5,220.5C 846.932,219.29 847.599,218.29 848.5,217.5 Z"/></g>
<g><path style="opacity:1" fill="#828081" d="M 987.5,217.5 C 987.446,219.632 986.446,220.965 984.5,221.5C 984.738,219.596 985.738,218.262 987.5,217.5 Z"/></g>
<g><path style="opacity:1" fill="#9e9d9c" d="M 1041.5,212.5 C 1045.58,219.706 1048.91,227.373 1051.5,235.5C 1049.91,233.786 1048.58,231.786 1047.5,229.5C 1045.09,223.937 1043.09,218.271 1041.5,212.5 Z"/></g>
<g><path style="opacity:1" fill="#9f9f9d" d="M 899.5,215.5 C 901.95,217.629 903.617,220.296 904.5,223.5C 901.758,221.551 900.091,218.884 899.5,215.5 Z"/></g>
<g><path style="opacity:1" fill="#979696" d="M 451.5,219.5 C 453.539,220.911 454.539,222.911 454.5,225.5C 452.992,223.819 451.992,221.819 451.5,219.5 Z"/></g>
<g><path style="opacity:1" fill="#999998" d="M 763.5,219.5 C 765.25,220.659 766.25,222.326 766.5,224.5C 764.75,223.341 763.75,221.674 763.5,219.5 Z"/></g>
<g><path style="opacity:1" fill="#999794" d="M 1206.5,205.5 C 1206.17,225.178 1206.5,244.845 1207.5,264.5C 1208.48,266.411 1209.14,268.411 1209.5,270.5C 1206,267.008 1204.66,262.675 1205.5,257.5C 1205.17,239.992 1205.5,222.659 1206.5,205.5 Z"/></g>
<g><path style="opacity:1" fill="#a3a3a4" d="M 1109.5,219.5 C 1109.09,221.887 1108.09,223.887 1106.5,225.5C 1106.62,222.895 1107.62,220.895 1109.5,219.5 Z"/></g>
<g><path style="opacity:1" fill="#a6a6a4" d="M 619.5,220.5 C 621.776,223.793 623.109,227.46 623.5,231.5C 621.412,228.248 620.079,224.582 619.5,220.5 Z"/></g>
<g><path style="opacity:1" fill="#d9d8d5" d="M 1206.5,204.5 C 1206.5,204.833 1206.5,205.167 1206.5,205.5C 1205.5,222.659 1205.17,239.992 1205.5,257.5C 1204.83,248.84 1204.5,240.006 1204.5,231C 1204.5,221.807 1205.17,212.974 1206.5,204.5 Z"/></g>
<g><path style="opacity:1" fill="#939392" d="M 846.5,220.5 C 846.379,223.105 845.379,225.105 843.5,226.5C 843.912,224.113 844.912,222.113 846.5,220.5 Z"/></g>
<g><path style="opacity:1" fill="#b4b3b1" d="M 270.5,223.5 C 270.5,227.5 270.5,231.5 270.5,235.5C 269.631,233.016 268.964,230.349 268.5,227.5C 268.668,225.829 269.335,224.496 270.5,223.5 Z"/></g>
<g><path style="opacity:1" fill="#7a7978" d="M 272.5,214.5 C 271.456,223.139 271.289,231.806 272,240.5C 272.674,243.26 273.507,245.927 274.5,248.5C 275.11,249.391 275.443,250.391 275.5,251.5C 271.7,247.004 270.033,241.671 270.5,235.5C 270.5,231.5 270.5,227.5 270.5,223.5C 270.215,220.171 270.882,217.171 272.5,214.5 Z"/></g>
<g><path style="opacity:1" fill="#b2b1b0" d="M 185.5,221.5 C 185.002,224.326 183.669,226.66 181.5,228.5C 182.079,225.669 183.412,223.336 185.5,221.5 Z"/></g>
<g><path style="opacity:1" fill="#a09f9f" d="M 454.5,225.5 C 456.201,226.211 457.201,227.545 457.5,229.5C 455.799,228.789 454.799,227.455 454.5,225.5 Z"/></g>
<g><path style="opacity:1" fill="#a2a2a1" d="M 766.5,224.5 C 768.04,226.838 768.706,229.505 768.5,232.5C 767.232,230.095 766.565,227.428 766.5,224.5 Z"/></g>
<g><path style="opacity:1" fill="#afb0ae" d="M 904.5,224.5 C 905.117,224.611 905.617,224.944 906,225.5C 906.44,227.866 906.94,230.199 907.5,232.5C 907.167,232.5 906.833,232.5 906.5,232.5C 905.709,229.885 905.043,227.218 904.5,224.5 Z"/></g>
<g><path style="opacity:1" fill="#a7a6a6" d="M 1328.5,213.5 C 1332.3,217.996 1333.97,223.329 1333.5,229.5C 1314.16,229.667 1294.83,229.5 1275.5,229C 1275.04,228.586 1274.71,228.086 1274.5,227.5C 1276.12,224.72 1277.28,221.72 1278,218.5C 1278.95,216.907 1280.12,215.574 1281.5,214.5C 1279.15,218.717 1277.48,223.217 1276.5,228C 1295.16,228.5 1313.83,228.667 1332.5,228.5C 1332.25,223.155 1330.91,218.155 1328.5,213.5 Z"/></g>
<g><path style="opacity:1" fill="#878786" d="M 1079.5,229.5 C 1081.18,230.183 1081.84,231.517 1081.5,233.5C 1080.66,232.329 1079.99,230.995 1079.5,229.5 Z"/></g>
<g><path style="opacity:1" fill="#a0a19f" d="M 181.5,228.5 C 181.25,230.674 180.25,232.341 178.5,233.5C 178.75,231.326 179.75,229.659 181.5,228.5 Z"/></g>
<g><path style="opacity:1" fill="#a9a8a8" d="M 1106.5,227.5 C 1106.09,229.887 1105.09,231.887 1103.5,233.5C 1103.62,230.895 1104.62,228.895 1106.5,227.5 Z"/></g>
<g><path style="opacity:1" fill="#989895" d="M 457.5,230.5 C 459.048,230.821 459.715,231.821 459.5,233.5C 458.094,233.027 457.427,232.027 457.5,230.5 Z"/></g>
<g><path style="opacity:1" fill="#9e9e9d" d="M 929.5,205.5 C 930.497,205.47 931.164,205.97 931.5,207C 939.874,226.396 940.708,246.23 934,266.5C 932.943,269.272 931.443,271.605 929.5,273.5C 940.165,250.828 940.165,228.161 929.5,205.5 Z"/></g>
<g><path style="opacity:1" fill="#b0b0af" d="M 178.5,233.5 C 178.245,235.967 177.245,237.967 175.5,239.5C 175.755,237.033 176.755,235.033 178.5,233.5 Z"/></g>
<g><path style="opacity:1" fill="#9d9c9b" d="M 459.5,233.5 C 461.614,234.784 462.614,236.784 462.5,239.5C 461.13,237.75 460.13,235.75 459.5,233.5 Z"/></g>
<g><path style="opacity:1" fill="#afaeac" d="M 1103.5,235.5 C 1103.09,237.887 1102.09,239.887 1100.5,241.5C 1100.62,238.895 1101.62,236.895 1103.5,235.5 Z"/></g>
<g><path style="opacity:1" fill="#999998" d="M 623.5,231.5 C 624.165,234.314 624.498,237.314 624.5,240.5C 624.684,245.107 624.017,249.44 622.5,253.5C 623.248,246.191 623.582,238.858 623.5,231.5 Z"/></g>
<g><path style="opacity:1" fill="#acacab" d="M 797.5,223.5 C 798.117,223.611 798.617,223.944 799,224.5C 799.667,234.833 799.667,245.167 799,255.5C 798.487,256.527 797.987,257.527 797.5,258.5C 798.764,247.106 798.764,235.439 797.5,223.5 Z"/></g>
<g><path style="opacity:1" fill="#a09f9f" d="M 1081.5,233.5 C 1084.2,236.579 1085.53,240.245 1085.5,244.5C 1083.78,240.999 1082.44,237.332 1081.5,233.5 Z"/></g>
<g><path style="opacity:1" fill="#969695" d="M 1131.5,235.5 C 1130.3,240.558 1128.8,245.558 1127,250.5C 1125.79,253.503 1124.29,256.17 1122.5,258.5C 1125.05,250.591 1128.05,242.925 1131.5,235.5 Z"/></g>
<g><path style="opacity:1" fill="#50504e" d="M 1245.5,231.5 C 1244.21,238.154 1244.21,244.82 1245.5,251.5C 1244.88,251.389 1244.38,251.056 1244,250.5C 1243.33,244.5 1243.33,238.5 1244,232.5C 1244.38,231.944 1244.88,231.611 1245.5,231.5 Z"/></g>
<g><path style="opacity:1" fill="#b3b3b3" d="M 1158.5,204.5 C 1164.83,204.5 1171.17,204.5 1177.5,204.5C 1177.19,229.211 1177.52,253.878 1178.5,278.5C 1177.88,278.389 1177.38,278.056 1177,277.5C 1176.5,253.502 1176.33,229.502 1176.5,205.5C 1170.31,205.823 1164.31,205.49 1158.5,204.5 Z"/></g>
<g><path style="opacity:1" fill="#aaa9a8" d="M 1251.5,212.5 C 1243.92,230.97 1243.58,249.636 1250.5,268.5C 1246.86,263.559 1245.19,257.892 1245.5,251.5C 1244.21,244.82 1244.21,238.154 1245.5,231.5C 1245.22,224.237 1247.22,217.904 1251.5,212.5 Z"/></g>
<g><path style="opacity:1" fill="#9d9d9c" d="M 843.5,226.5 C 842.167,235.833 842.167,245.167 843.5,254.5C 841.967,250.104 841.3,245.437 841.5,240.5C 841.3,235.563 841.967,230.896 843.5,226.5 Z"/></g>
<g><path style="opacity:1" fill="#7a7978" d="M 707.5,220.5 C 703.633,230.467 702.633,240.801 704.5,251.5C 705.692,254.114 706.692,256.781 707.5,259.5C 707.5,259.833 707.5,260.167 707.5,260.5C 703.816,254.959 701.816,248.792 701.5,242C 702.299,236.874 703.132,231.708 704,226.5C 705.082,224.382 706.249,222.382 707.5,220.5 Z"/></g>
<g><path style="opacity:1" fill="#a3a2a2" d="M 365.5,218.5 C 366.117,218.611 366.617,218.944 367,219.5C 369.277,231.884 367.11,243.217 360.5,253.5C 362.716,248.385 364.383,243.051 365.5,237.5C 366.752,231.143 366.752,224.81 365.5,218.5 Z"/></g>
<g><path style="opacity:1" fill="#a1a1a0" d="M 1085.5,244.5 C 1087.29,246.83 1088.79,249.497 1090,252.5C 1090.66,254.813 1091.16,257.146 1091.5,259.5C 1088.75,254.94 1086.75,249.94 1085.5,244.5 Z"/></g>
<g><path style="opacity:1" fill="#9c9b9b" d="M 1052.5,238.5 C 1054.41,241.983 1056.07,245.65 1057.5,249.5C 1054.14,246.793 1052.47,243.126 1052.5,238.5 Z"/></g>
<g><path style="opacity:1" fill="#91908f" d="M 1359.5,214.5 C 1360.88,217.353 1362.04,220.353 1363,223.5C 1364.12,231.797 1364.62,240.13 1364.5,248.5C 1335.16,248.333 1305.83,248.5 1276.5,249C 1277.47,254.724 1279.14,260.224 1281.5,265.5C 1277.68,260.25 1275.68,254.25 1275.5,247.5C 1304.83,247.5 1334.17,247.5 1363.5,247.5C 1363.76,236.626 1362.09,226.126 1358.5,216C 1359.06,215.617 1359.39,215.117 1359.5,214.5 Z"/></g>
<g><path style="opacity:1" fill="#a1a1a0" d="M 768.5,232.5 C 769.845,235.051 770.511,237.884 770.5,241C 769.532,246.364 768.198,251.531 766.5,256.5C 767.825,248.562 768.492,240.562 768.5,232.5 Z"/></g>
<g><path style="opacity:1" fill="#919290" d="M 1100.5,243.5 C 1098.63,247.792 1096.96,252.125 1095.5,256.5C 1095.29,251.277 1096.96,246.944 1100.5,243.5 Z"/></g>
<g><path style="opacity:1" fill="#858584" d="M 906.5,232.5 C 906.833,232.5 907.167,232.5 907.5,232.5C 908.466,242.096 907.132,251.263 903.5,260C 903.164,261.03 902.497,261.53 901.5,261.5C 905.931,252.373 907.598,242.706 906.5,232.5 Z"/></g>
<g><path style="opacity:1" fill="#9e9e9d" d="M 275.5,252.5 C 277.446,253.035 278.446,254.368 278.5,256.5C 277.026,255.564 276.026,254.23 275.5,252.5 Z"/></g>
<g><path style="opacity:1" fill="#9e9d9a" d="M 1057.5,251.5 C 1059.25,253.033 1060.25,255.033 1060.5,257.5C 1058.62,256.105 1057.62,254.105 1057.5,251.5 Z"/></g>
<g><path style="opacity:1" fill="#9d9d9c" d="M 622.5,253.5 C 622.245,255.967 621.245,257.967 619.5,259.5C 619.621,256.895 620.621,254.895 622.5,253.5 Z"/></g>
<g><path style="opacity:1" fill="#7f7e7d" d="M 175.5,240.5 C 171.534,253.191 171.534,265.858 175.5,278.5C 174.011,276.884 173.011,274.884 172.5,272.5C 171.167,263.5 171.167,254.5 172.5,245.5C 173.001,243.345 174.001,241.678 175.5,240.5 Z"/></g>
<g><path style="opacity:1" fill="#9d9c9b" d="M 533.5,212.5 C 524.989,236.785 527.322,259.785 540.5,281.5C 536.704,277.856 533.871,273.523 532,268.5C 526.223,250.596 526.056,232.596 531.5,214.5C 531.747,213.287 532.414,212.62 533.5,212.5 Z"/></g>
<g><path style="opacity:1" fill="#90918f" d="M 278.5,256.5 C 280.86,257.865 282.527,259.865 283.5,262.5C 281.11,261.109 279.443,259.109 278.5,256.5 Z"/></g>
<g><path style="opacity:1" fill="#9e9e9d" d="M 360.5,253.5 C 359.855,255.826 358.522,257.493 356.5,258.5C 357.145,256.174 358.478,254.507 360.5,253.5 Z"/></g>
<g><path style="opacity:1" fill="#a1a1a0" d="M 766.5,256.5 C 765.621,259.701 763.955,262.368 761.5,264.5C 762.454,261.249 764.12,258.582 766.5,256.5 Z"/></g>
<g><path style="opacity:1" fill="#8d8d8b" d="M 1095.5,256.5 C 1094.91,258.352 1094.24,260.185 1093.5,262C 1092.18,262.528 1091.52,262.028 1091.5,260.5C 1092.83,259.167 1094.17,257.833 1095.5,256.5 Z"/></g>
<g><path style="opacity:1" fill="#b4b7b6" d="M 356.5,258.5 C 356.5,260.5 355.5,261.5 353.5,261.5C 354.167,260.167 355.167,259.167 356.5,258.5 Z"/></g>
<g><path style="opacity:1" fill="#898988" d="M 462.5,239.5 C 463.497,239.47 464.164,239.97 464.5,241C 468.49,254.219 468.323,267.385 464,280.5C 463.098,282.431 461.931,284.097 460.5,285.5C 467.565,270.451 468.232,255.118 462.5,239.5 Z"/></g>
<g><path style="opacity:1" fill="#91908f" d="M 619.5,259.5 C 619.573,261.027 618.906,262.027 617.5,262.5C 617.285,260.821 617.952,259.821 619.5,259.5 Z"/></g>
<g><path style="opacity:1" fill="#7b7b7a" d="M 843.5,254.5 C 843.833,254.5 844.167,254.5 844.5,254.5C 846.377,256.87 847.543,259.537 848,262.5C 845.838,260.18 844.338,257.513 843.5,254.5 Z"/></g>
<g><path style="opacity:1" fill="#949393" d="M 797.5,259.5 C 796.94,261.801 796.44,264.134 796,266.5C 795.623,267.942 794.79,268.942 793.5,269.5C 794.766,266.699 795.599,263.699 796,260.5C 796.383,259.944 796.883,259.611 797.5,259.5 Z"/></g>
<g><path style="opacity:1" fill="#a3a2a2" d="M 1060.5,257.5 C 1062.07,259.509 1063.07,261.843 1063.5,264.5C 1061.46,262.794 1060.46,260.461 1060.5,257.5 Z"/></g>
<g><path style="opacity:1" fill="#949493" d="M 707.5,260.5 C 709.446,261.035 710.446,262.368 710.5,264.5C 709.026,263.564 708.026,262.23 707.5,260.5 Z"/></g>
<g><path style="opacity:1" fill="#474746" d="M 901.5,262.5 C 899.5,265.833 896.833,268.5 893.5,270.5C 893.586,269.504 893.252,268.671 892.5,268C 894.667,265.833 896.833,263.667 899,261.5C 899.671,262.252 900.504,262.586 901.5,262.5 Z"/></g>
<g><path style="opacity:1" fill="#a1a1a0" d="M 1122.5,258.5 C 1122.88,260.698 1122.21,262.365 1120.5,263.5C 1120.8,261.597 1121.46,259.93 1122.5,258.5 Z"/></g>
<g><path style="opacity:1" fill="#b5b6b5" d="M 353.5,261.5 C 353.5,263.5 352.5,264.5 350.5,264.5C 351.167,263.167 352.167,262.167 353.5,261.5 Z"/></g>
<g><path style="opacity:1" fill="#9b9b9a" d="M 710.5,264.5 C 712.5,264.5 713.5,265.5 713.5,267.5C 712.167,266.833 711.167,265.833 710.5,264.5 Z"/></g>
<g><path style="opacity:1" fill="#b9b8b8" d="M 350.5,264.5 C 350.5,265.833 349.833,266.5 348.5,266.5C 348.833,265.5 349.5,264.833 350.5,264.5 Z"/></g>
<g><path style="opacity:1" fill="#a7a7a4" d="M 850.5,264.5 C 851.833,265.167 852.833,266.167 853.5,267.5C 851.5,267.5 850.5,266.5 850.5,264.5 Z"/></g>
<g><path style="opacity:1" fill="#a4a3a2" d="M 283.5,262.5 C 286.135,263.473 288.135,265.14 289.5,267.5C 286.891,266.557 284.891,264.89 283.5,262.5 Z"/></g>
<g><path style="opacity:1" fill="#7e7e7c" d="M 348.5,266.5 C 347.71,267.401 346.71,268.068 345.5,268.5C 345.821,266.952 346.821,266.285 348.5,266.5 Z"/></g>
<g><path style="opacity:1" fill="#a7a7a7" d="M 1120.5,264.5 C 1120.24,267.272 1119.24,269.605 1117.5,271.5C 1117.76,268.728 1118.76,266.395 1120.5,264.5 Z"/></g>
<g><path style="opacity:1" fill="#a9a9a8" d="M 1344.5,269.5 C 1343.54,269.047 1342.71,268.381 1342,267.5C 1340.73,268.883 1339.23,269.883 1337.5,270.5C 1338.4,268.611 1339.9,267.278 1342,266.5C 1343.75,266.748 1344.58,267.748 1344.5,269.5 Z"/></g>
<g><path style="opacity:1" fill="#b1b2b0" d="M 289.5,267.5 C 291.153,267.66 292.486,268.326 293.5,269.5C 291.62,269.771 290.287,269.104 289.5,267.5 Z"/></g>
<g><path style="opacity:1" fill="#b6b6b5" d="M 566.5,264.5 C 568.882,266.215 570.882,268.215 572.5,270.5C 569.478,269.478 567.478,267.478 566.5,264.5 Z"/></g>
<g><path style="opacity:1" fill="#b5b5b4" d="M 615.5,264.5 C 614.833,267.167 613.167,268.833 610.5,269.5C 611.833,267.5 613.5,265.833 615.5,264.5 Z"/></g>
<g><path style="opacity:1" fill="#bbbaba" d="M 853.5,267.5 C 854.5,267.833 855.167,268.5 855.5,269.5C 854.167,269.5 853.5,268.833 853.5,267.5 Z"/></g>
<g><path style="opacity:1" fill="#949492" d="M 345.5,268.5 C 344.713,270.104 343.38,270.771 341.5,270.5C 342.514,269.326 343.847,268.66 345.5,268.5 Z"/></g>
<g><path style="opacity:1" fill="#a5a4a4" d="M 713.5,267.5 C 717.097,268.791 720.097,270.791 722.5,273.5C 718.954,272.281 715.954,270.281 713.5,267.5 Z"/></g>
<g><path style="opacity:1" fill="#9e9f9d" d="M 1209.5,270.5 C 1210.76,270.461 1211.76,270.961 1212.5,272C 1211,272.585 1210,272.085 1209.5,270.5 Z"/></g>
<g><path style="opacity:1" fill="#acacac" d="M 573.5,270.5 C 575.455,270.799 576.789,271.799 577.5,273.5C 575.545,273.201 574.211,272.201 573.5,270.5 Z"/></g>
<g><path style="opacity:1" fill="#b1b2b3" d="M 608.5,271.5 C 607.71,272.401 606.71,273.068 605.5,273.5C 605.821,271.952 606.821,271.285 608.5,271.5 Z"/></g>
<g><path style="opacity:1" fill="#9a9b99" d="M 757.5,268.5 C 755.371,270.95 752.704,272.617 749.5,273.5C 751.582,271.12 754.249,269.454 757.5,268.5 Z"/></g>
<g><path style="opacity:1" fill="#919090" d="M 856.5,270.5 C 858.967,270.755 860.967,271.755 862.5,273.5C 860.033,273.245 858.033,272.245 856.5,270.5 Z"/></g>
<g><path style="opacity:1" fill="#b8b8b8" d="M 893.5,270.5 C 892.232,272.047 890.565,273.047 888.5,273.5C 889.486,271.592 891.152,270.592 893.5,270.5 Z"/></g>
<g><path style="opacity:1" fill="#a7a6a5" d="M 1251.5,270.5 C 1252.67,271.514 1253.34,272.847 1253.5,274.5C 1251.9,273.713 1251.23,272.38 1251.5,270.5 Z"/></g>
<g><path style="opacity:1" fill="#908f8f" d="M 1344.5,269.5 C 1346.45,270.035 1347.45,271.368 1347.5,273.5C 1346.03,272.564 1345.03,271.23 1344.5,269.5 Z"/></g>
<g><path style="opacity:1" fill="#858583" d="M 294.5,270.5 C 296.484,270.484 297.484,271.484 297.5,273.5C 297.253,274.713 296.586,275.38 295.5,275.5C 296.734,273.602 296.401,271.935 294.5,270.5 Z"/></g>
<g><path style="opacity:1" fill="#807f7e" d="M 341.5,270.5 C 341.423,271.75 340.756,272.583 339.5,273C 340.252,273.671 340.586,274.504 340.5,275.5C 337.916,273.581 338.25,271.914 341.5,270.5 Z"/></g>
<g><path style="opacity:1" fill="#a8a9a8" d="M 793.5,269.5 C 793.346,271.97 792.346,273.97 790.5,275.5C 790.654,273.03 791.654,271.03 793.5,269.5 Z"/></g>
<g><path style="opacity:1" fill="#999998" d="M 1064.5,267.5 C 1069.11,276.843 1073.27,286.51 1077,296.5C 1077.61,302.821 1076.11,308.488 1072.5,313.5C 1073.11,308.782 1074.44,304.282 1076.5,300C 1072.26,289.184 1068.26,278.35 1064.5,267.5 Z"/></g>
<g><path style="opacity:1" fill="#a7a4a4" d="M 1287.5,271.5 C 1289.03,271.427 1290.03,272.094 1290.5,273.5C 1288.97,273.573 1287.97,272.906 1287.5,271.5 Z"/></g>
<g><path style="opacity:1" fill="#aaaaa8" d="M 1337.5,270.5 C 1336.34,272.25 1334.67,273.25 1332.5,273.5C 1333.66,271.75 1335.33,270.75 1337.5,270.5 Z"/></g>
<g><path style="opacity:1" fill="#a0a09e" d="M 578.5,273.5 C 586.833,274.833 595.167,274.833 603.5,273.5C 599.829,275.23 595.829,276.23 591.5,276.5C 587.845,275.918 584.178,275.418 580.5,275C 579.584,274.722 578.918,274.222 578.5,273.5 Z"/></g>
<g><path style="opacity:1" fill="#a0a09f" d="M 724.5,273.5 C 731.777,274.43 739.11,274.764 746.5,274.5C 739.703,276.95 732.703,277.116 725.5,275C 724.944,274.617 724.611,274.117 724.5,273.5 Z"/></g>
<g><path style="opacity:1" fill="#a4a3a2" d="M 862.5,273.5 C 870.833,274.833 879.167,274.833 887.5,273.5C 883.649,275.185 879.482,276.185 875,276.5C 870.518,276.185 866.351,275.185 862.5,273.5 Z"/></g>
<g><path style="opacity:1" fill="#a2a2a1" d="M 1117.5,272.5 C 1116.65,276.675 1115.32,280.675 1113.5,284.5C 1113.25,285.713 1112.59,286.38 1111.5,286.5C 1112.56,281.282 1114.56,276.615 1117.5,272.5 Z"/></g>
<g><path style="opacity:1" fill="#989797" d="M 1292.5,274.5 C 1294.7,274.12 1296.36,274.787 1297.5,276.5C 1295.6,276.204 1293.93,275.537 1292.5,274.5 Z"/></g>
<g><path style="opacity:1" fill="#aaa9a9" d="M 1332.5,273.5 C 1330.43,274.945 1328.1,275.945 1325.5,276.5C 1327.21,274.464 1329.54,273.464 1332.5,273.5 Z"/></g>
<g><path style="opacity:1" fill="#a2a3a2" d="M 1347.5,273.5 C 1349.45,274.035 1350.45,275.368 1350.5,277.5C 1349.03,276.564 1348.03,275.23 1347.5,273.5 Z"/></g>
<g><path style="opacity:1" fill="#888787" d="M 929.5,273.5 C 929.741,276.034 928.741,277.7 926.5,278.5C 927.263,276.632 928.263,274.965 929.5,273.5 Z"/></g>
<g><path style="opacity:1" fill="#bababa" d="M 951.5,181.5 C 951.833,181.5 952.167,181.5 952.5,181.5C 952.5,220.833 952.5,260.167 952.5,299.5C 961.833,299.5 971.167,299.5 980.5,299.5C 980.333,275.831 980.5,252.164 981,228.5C 982.021,226.03 983.188,223.696 984.5,221.5C 984.279,224.392 983.446,227.059 982,229.5C 981.5,253.164 981.333,276.831 981.5,300.5C 971.5,300.5 961.5,300.5 951.5,300.5C 951.5,260.833 951.5,221.167 951.5,181.5 Z"/></g>
<g><path style="opacity:1" fill="#adaeac" d="M 1253.5,274.5 C 1254.97,275.436 1255.97,276.77 1256.5,278.5C 1254.55,277.965 1253.55,276.632 1253.5,274.5 Z"/></g>
<g><path style="opacity:1" fill="#737373" d="M 295.5,275.5 C 295.5,277.5 294.5,278.5 292.5,278.5C 293.167,277.167 294.167,276.167 295.5,275.5 Z"/></g>
<g><path style="opacity:1" fill="#848382" d="M 790.5,275.5 C 790.5,276.5 790.5,277.5 790.5,278.5C 789.833,278.5 789.167,278.5 788.5,278.5C 788.932,277.29 789.599,276.29 790.5,275.5 Z"/></g>
<g><path style="opacity:1" fill="#a6a6a5" d="M 1297.5,276.5 C 1306.82,277.717 1316.16,277.717 1325.5,276.5C 1320.76,277.999 1315.76,278.666 1310.5,278.5C 1307.17,278.333 1303.83,278.167 1300.5,278C 1299.26,277.768 1298.26,277.268 1297.5,276.5 Z"/></g>
<g><path style="opacity:1" fill="#969695" d="M 788.5,278.5 C 788.114,280.937 786.947,282.937 785,284.5C 784.333,283.833 784.333,283.167 785,282.5C 785.949,280.907 787.115,279.574 788.5,278.5 Z"/></g>
<g><path style="opacity:1" fill="#9c9b9b" d="M 926.5,278.5 C 926.107,280.284 925.441,281.95 924.5,283.5C 923.833,283.833 923.167,284.167 922.5,284.5C 923.34,282.147 924.674,280.147 926.5,278.5 Z"/></g>
<g><path style="opacity:1" fill="#949491" d="M 1350.5,277.5 C 1353.07,278.908 1354.73,281.075 1355.5,284C 1355.32,285.376 1354.65,286.209 1353.5,286.5C 1354.41,285.262 1354.58,283.928 1354,282.5C 1352.33,281.154 1351.16,279.487 1350.5,277.5 Z"/></g>
<g><path style="opacity:1" fill="#363636" d="M 910.5,294.5 C 914.5,291.167 918.5,287.833 922.5,284.5C 923.167,284.167 923.833,283.833 924.5,283.5C 925.767,282.913 926.767,282.913 927.5,283.5C 924.069,285.427 921.069,287.927 918.5,291C 915.69,292.012 913.024,293.178 910.5,294.5 Z"/></g>
<g><path style="opacity:1" fill="#9e9e9c" d="M 1178.5,280.5 C 1179.87,282.25 1180.87,284.25 1181.5,286.5C 1179.39,285.216 1178.39,283.216 1178.5,280.5 Z"/></g>
<g><path style="opacity:1" fill="#979795" d="M 540.5,281.5 C 543.087,282.648 544.087,284.315 543.5,286.5C 542.075,285.078 541.075,283.411 540.5,281.5 Z"/></g>
<g><path style="opacity:1" fill="#a9a8a7" d="M 1231.5,273.5 C 1232.83,273.5 1234.17,273.5 1235.5,273.5C 1235.82,282.418 1235.48,291.251 1234.5,300C 1222.87,302.392 1211.2,302.726 1199.5,301C 1197.56,300.878 1196.23,300.045 1195.5,298.5C 1207.98,301.502 1220.65,301.669 1233.5,299C 1234.81,290.892 1234.81,282.725 1233.5,274.5C 1227.56,276.827 1221.56,276.993 1215.5,275C 1221.02,274.827 1226.35,274.327 1231.5,273.5 Z"/></g>
<g><path style="opacity:1" fill="#b7b7b7" d="M 674.5,181.5 C 674.833,181.5 675.167,181.5 675.5,181.5C 675.5,237.167 675.5,292.833 675.5,348.5C 684.833,348.5 694.167,348.5 703.5,348.5C 703.5,327.5 703.5,306.5 703.5,285.5C 706.344,285.343 708.011,286.676 708.5,289.5C 706.926,289.063 705.759,288.063 705,286.5C 704.5,307.497 704.333,328.497 704.5,349.5C 694.5,349.5 684.5,349.5 674.5,349.5C 674.5,293.5 674.5,237.5 674.5,181.5 Z"/></g>
<g><path style="opacity:1" fill="#979595" d="M 179.5,287.5 C 180.89,288.899 181.89,290.566 182.5,292.5C 180.273,291.599 179.273,289.933 179.5,287.5 Z"/></g>
<g><path style="opacity:1" fill="#9a9999" d="M 1352.5,287.5 C 1350.73,289.935 1348.4,291.602 1345.5,292.5C 1347.27,290.065 1349.6,288.398 1352.5,287.5 Z"/></g>
<g><path style="opacity:1" fill="#a5a5a3" d="M 460.5,285.5 C 460.008,287.819 459.008,289.819 457.5,291.5C 457.461,288.911 458.461,286.911 460.5,285.5 Z"/></g>
<g><path style="opacity:1" fill="#9f9e9d" d="M 552.5,293.5 C 550.15,292.139 547.816,290.806 545.5,289.5C 545.369,288.761 545.536,288.094 546,287.5C 548.711,289.049 550.877,291.049 552.5,293.5 Z"/></g>
<g><path style="opacity:1" fill="#79797a" d="M 281.5,289.5 C 281.5,291.5 280.5,292.5 278.5,292.5C 279.167,291.167 280.167,290.167 281.5,289.5 Z"/></g>
<g><path style="opacity:1" fill="#b2b3b2" d="M 1184.5,291.5 C 1185.83,291.5 1186.5,292.167 1186.5,293.5C 1185.5,293.167 1184.83,292.5 1184.5,291.5 Z"/></g>
<g><path style="opacity:1" fill="#8a8a88" d="M 1265.5,289.5 C 1269.05,290.769 1272.05,292.769 1274.5,295.5C 1273.45,295.649 1272.45,295.483 1271.5,295C 1269.16,293.366 1267.16,291.533 1265.5,289.5 Z"/></g>
<g><path style="opacity:1" fill="#898887" d="M 618.5,289.5 C 617.362,292.086 615.362,293.753 612.5,294.5C 614.091,292.367 616.091,290.701 618.5,289.5 Z"/></g>
<g><path style="opacity:1" fill="#929392" d="M 457.5,291.5 C 456.876,293.754 455.543,295.421 453.5,296.5C 454.136,294.205 455.469,292.539 457.5,291.5 Z"/></g>
<g><path style="opacity:1" fill="#767675" d="M 708.5,289.5 C 710.909,290.701 712.909,292.367 714.5,294.5C 712.678,294.169 711.011,293.502 709.5,292.5C 708.89,291.609 708.557,290.609 708.5,289.5 Z"/></g>
<g><path style="opacity:1" fill="#929293" d="M 850.5,292.5 C 852.674,292.75 854.341,293.75 855.5,295.5C 853.152,295.408 851.486,294.408 850.5,292.5 Z"/></g>
<g><path style="opacity:1" fill="#9c9b9a" d="M 1111.5,286.5 C 1111.69,289.811 1110.69,292.478 1108.5,294.5C 1109.13,291.603 1110.13,288.936 1111.5,286.5 Z"/></g>
<g><path style="opacity:1" fill="#b4b5b2" d="M 1186.5,293.5 C 1188.03,293.427 1189.03,294.094 1189.5,295.5C 1187.97,295.573 1186.97,294.906 1186.5,293.5 Z"/></g>
<g><path style="opacity:1" fill="#9c9998" d="M 182.5,292.5 C 183.906,292.973 184.573,293.973 184.5,295.5C 183.094,295.027 182.427,294.027 182.5,292.5 Z"/></g>
<g><path style="opacity:1" fill="#727271" d="M 278.5,292.5 C 278.5,294.5 277.5,295.5 275.5,295.5C 276.167,294.167 277.167,293.167 278.5,292.5 Z"/></g>
<g><path style="opacity:1" fill="#b3b2b2" d="M 552.5,293.5 C 554.153,293.66 555.486,294.326 556.5,295.5C 554.62,295.771 553.287,295.104 552.5,293.5 Z"/></g>
<g><path style="opacity:1" fill="#8c8c8b" d="M 778.5,290.5 C 776.342,292.993 773.676,294.66 770.5,295.5C 772.629,293.05 775.296,291.383 778.5,290.5 Z"/></g>
<g><path style="opacity:1" fill="#b6b6b4" d="M 910.5,294.5 C 909.71,295.401 908.71,296.068 907.5,296.5C 907.821,294.952 908.821,294.285 910.5,294.5 Z"/></g>
<g><path style="opacity:1" fill="#a9a9a8" d="M 1345.5,292.5 C 1344.22,294.73 1342.22,296.063 1339.5,296.5C 1341,294.634 1343,293.301 1345.5,292.5 Z"/></g>
<g><path style="opacity:1" fill="#7c7b79" d="M 184.5,295.5 C 185.833,296.167 186.833,297.167 187.5,298.5C 185.5,298.5 184.5,297.5 184.5,295.5 Z"/></g>
<g><path style="opacity:1" fill="#a9a9a8" d="M 716.5,295.5 C 718.75,296.13 720.75,297.13 722.5,298.5C 719.784,298.614 717.784,297.614 716.5,295.5 Z"/></g>
<g><path style="opacity:1" fill="#878785" d="M 855.5,295.5 C 856.71,295.932 857.71,296.599 858.5,297.5C 856.821,297.715 855.821,297.048 855.5,295.5 Z"/></g>
<g><path style="opacity:1" fill="#939391" d="M 1189.5,295.5 C 1191.54,296.508 1193.54,297.508 1195.5,298.5C 1192.61,298.969 1190.61,297.969 1189.5,295.5 Z"/></g>
<g><path style="opacity:1" fill="#9b9a98" d="M 360.5,295.5 C 363.473,297.147 366.14,299.147 368.5,301.5C 364.935,300.59 362.268,298.59 360.5,295.5 Z"/></g>
<g><path style="opacity:1" fill="#b1b0b0" d="M 556.5,295.5 C 558.75,296.13 560.75,297.13 562.5,298.5C 559.784,298.614 557.784,297.614 556.5,295.5 Z"/></g>
<g><path style="opacity:1" fill="#999998" d="M 1108.5,294.5 C 1108.48,296.927 1107.98,299.26 1107,301.5C 1105.79,304.503 1104.29,307.17 1102.5,309.5C 1103.74,304.087 1105.74,299.087 1108.5,294.5 Z"/></g>
<g><path style="opacity:1" fill="#8c8b8a" d="M 275.5,295.5 C 274.135,297.86 272.135,299.527 269.5,300.5C 270.891,298.11 272.891,296.443 275.5,295.5 Z"/></g>
<g><path style="opacity:1" fill="#a6a6a6" d="M 324.5,306.5 C 322.516,305.017 320.683,303.351 319,301.5C 317.989,302.056 317.156,302.722 316.5,303.5C 316.5,302.833 316.5,302.167 316.5,301.5C 318.035,300.212 319.701,300.212 321.5,301.5C 322.952,302.94 323.952,304.606 324.5,306.5 Z"/></g>
<g><path style="opacity:1" fill="#898889" d="M 451.5,298.5 C 451.5,300.5 450.5,301.5 448.5,301.5C 449.167,300.167 450.167,299.167 451.5,298.5 Z"/></g>
<g><path style="opacity:1" fill="#adadac" d="M 907.5,296.5 C 902.884,300.139 897.551,301.806 891.5,301.5C 896.87,300.226 902.203,298.559 907.5,296.5 Z"/></g>
<g><path style="opacity:1" fill="#000000" d="M 324.5,306.5 C 325.462,308.986 326.295,308.986 327,306.5C 328.833,308.333 330.667,310.167 332.5,312C 331.833,312.333 331.167,312.667 330.5,313C 330.728,313.399 331.062,313.565 331.5,313.5C 332.433,316.37 334.1,318.704 336.5,320.5C 336.833,321.5 337.5,322.167 338.5,322.5C 339.701,324.909 341.367,326.909 343.5,328.5C 343.5,329.833 344.167,330.5 345.5,330.5C 345.66,332.153 346.326,333.486 347.5,334.5C 347.833,335.5 348.5,336.167 349.5,336.5C 351.087,340.683 353.421,344.35 356.5,347.5C 356.5,347.833 356.5,348.167 356.5,348.5C 360.462,358.13 361.462,368.13 359.5,378.5C 359.5,379.5 359.5,380.5 359.5,381.5C 357.755,383.033 356.755,385.033 356.5,387.5C 354.917,389.663 353.584,391.996 352.5,394.5C 351.5,394.833 350.833,395.5 350.5,396.5C 349.167,397.167 348.167,398.167 347.5,399.5C 346.167,400.167 345.167,401.167 344.5,402.5C 342.973,402.427 341.973,403.094 341.5,404.5C 340.609,405.11 339.609,405.443 338.5,405.5C 332.511,408.87 326.011,410.203 319,409.5C 315.5,409.333 312,409.167 308.5,409C 304.56,407.408 300.56,405.908 296.5,404.5C 296.167,403.5 295.5,402.833 294.5,402.5C 292.45,400.453 290.117,398.786 287.5,397.5C 287.573,395.973 286.906,394.973 285.5,394.5C 282.023,388.374 279.357,382.041 277.5,375.5C 277.26,369.773 277.593,364.106 278.5,358.5C 279.783,353.648 281.45,348.981 283.5,344.5C 285.279,343.33 286.279,341.664 286.5,339.5C 288.543,338.421 289.876,336.754 290.5,334.5C 290.5,334.167 290.5,333.833 290.5,333.5C 292.446,332.965 293.446,331.632 293.5,329.5C 294.833,328.833 295.833,327.833 296.5,326.5C 297.974,325.564 298.974,324.23 299.5,322.5C 300.906,322.027 301.573,321.027 301.5,319.5C 301.833,319.5 302.167,319.5 302.5,319.5C 303.974,318.564 304.974,317.23 305.5,315.5C 306.906,315.027 307.573,314.027 307.5,312.5C 308.167,312.5 308.5,312.167 308.5,311.5C 311.5,309.167 314.167,306.5 316.5,303.5C 317.156,302.722 317.989,302.056 319,301.5C 320.683,303.351 322.516,305.017 324.5,306.5 Z"/></g>
<g><path style="opacity:1" fill="#9e9c9c" d="M 368.5,301.5 C 369.872,302.512 371.205,303.512 372.5,304.5C 370.027,304.912 368.694,303.912 368.5,301.5 Z"/></g>
<g><path style="opacity:1" fill="#9e9e9d" d="M 612.5,294.5 C 612.047,295.458 611.381,296.292 610.5,297C 595.694,304.313 580.361,305.48 564.5,300.5C 563.287,300.253 562.62,299.586 562.5,298.5C 579.855,304.908 596.522,303.574 612.5,294.5 Z"/></g>
<g><path style="opacity:1" fill="#999898" d="M 770.5,295.5 C 768.605,297.443 766.272,298.943 763.5,300C 750.588,304.431 737.588,304.598 724.5,300.5C 723.287,300.253 722.62,299.586 722.5,298.5C 738.994,304.552 754.994,303.552 770.5,295.5 Z"/></g>
<g><path style="opacity:1" fill="#989897" d="M 861.5,298.5 C 871.179,302.398 881.179,303.398 891.5,301.5C 891.389,302.117 891.056,302.617 890.5,303C 881.216,304.208 872.216,303.375 863.5,300.5C 862.287,300.253 861.62,299.586 861.5,298.5 Z"/></g>
<g><path style="opacity:1" fill="#9d9d9c" d="M 1274.5,295.5 C 1295.61,305.699 1316.95,306.033 1338.5,296.5C 1337.1,297.931 1335.43,299.098 1333.5,300C 1313.91,306.631 1294.74,305.797 1276,297.5C 1274.97,297.164 1274.47,296.497 1274.5,295.5 Z"/></g>
<g><path style="opacity:1" fill="#313131" d="M 316.5,301.5 C 316.5,302.167 316.5,302.833 316.5,303.5C 314.167,306.5 311.5,309.167 308.5,311.5C 307.037,309.402 307.204,307.402 309,305.5C 311.652,305.234 313.652,303.567 315,300.5C 315.383,301.056 315.883,301.389 316.5,301.5 Z"/></g>
<g><path style="opacity:1" fill="#949494" d="M 448.5,301.5 C 447.362,304.086 445.362,305.753 442.5,306.5C 444.091,304.367 446.091,302.701 448.5,301.5 Z"/></g>
<g><path style="opacity:1" fill="#989796" d="M 193.5,304.5 C 195.027,304.427 196.027,305.094 196.5,306.5C 194.821,306.715 193.821,306.048 193.5,304.5 Z"/></g>
<g><path style="opacity:1" fill="#9b9a9a" d="M 267.5,302.5 C 265.853,304.326 263.853,305.66 261.5,306.5C 262.802,304.178 264.802,302.845 267.5,302.5 Z"/></g>
<g><path style="opacity:1" fill="#9d9d9b" d="M 372.5,304.5 C 374.23,305.026 375.564,306.026 376.5,307.5C 374.368,307.446 373.035,306.446 372.5,304.5 Z"/></g>
<g><path style="opacity:1" fill="#b0b0b0" d="M 377.5,307.5 C 378.71,307.932 379.71,308.599 380.5,309.5C 378.821,309.715 377.821,309.048 377.5,307.5 Z"/></g>
<g><path style="opacity:1" fill="#6a6a6a" d="M 441.5,307.5 C 439.127,310.964 435.794,312.631 431.5,312.5C 434.795,310.853 438.128,309.186 441.5,307.5 Z"/></g>
<g><path style="opacity:1" fill="#acacac" d="M 254.5,310.5 C 253.713,312.104 252.38,312.771 250.5,312.5C 251.514,311.326 252.847,310.66 254.5,310.5 Z"/></g>
<g><path style="opacity:1" fill="#999a99" d="M 380.5,309.5 C 382.75,310.13 384.75,311.13 386.5,312.5C 383.784,312.614 381.784,311.614 380.5,309.5 Z"/></g>
<g><path style="opacity:1" fill="#b2b0b1" d="M 307.5,312.5 C 307.573,314.027 306.906,315.027 305.5,315.5C 305.427,313.973 306.094,312.973 307.5,312.5 Z"/></g>
<g><path style="opacity:1" fill="#959594" d="M 1102.5,309.5 C 1100.73,317.276 1098.07,324.609 1094.5,331.5C 1096.56,323.9 1099.23,316.566 1102.5,309.5 Z"/></g>
<g><path style="opacity:1" fill="#878685" d="M 198.5,307.5 C 214.855,317.554 232.188,319.221 250.5,312.5C 248.325,314.417 245.658,315.75 242.5,316.5C 227.632,319.995 213.632,317.995 200.5,310.5C 199.388,309.735 198.721,308.735 198.5,307.5 Z"/></g>
<g><path style="opacity:1" fill="#858584" d="M 386.5,312.5 C 401.509,317.804 416.509,317.804 431.5,312.5C 429.325,314.417 426.658,315.75 423.5,316.5C 411.644,319.348 399.977,318.682 388.5,314.5C 387.287,314.253 386.62,313.586 386.5,312.5 Z"/></g>
<g><path style="opacity:1" fill="#d7d7d5" d="M 846.5,288.5 C 845.542,288.047 844.708,287.381 844,286.5C 843.5,307.164 843.333,327.831 843.5,348.5C 843.167,348.5 842.833,348.5 842.5,348.5C 842.5,327.5 842.5,306.5 842.5,285.5C 844.973,285.088 846.306,286.088 846.5,288.5 Z"/></g>
<g><path style="opacity:1" fill="#b2b3b2" d="M 305.5,315.5 C 304.974,317.23 303.974,318.564 302.5,319.5C 302.554,317.368 303.554,316.035 305.5,315.5 Z"/></g>
<g><path style="opacity:1" fill="#acabab" d="M 331.5,313.5 C 334.323,314.992 335.99,317.326 336.5,320.5C 334.1,318.704 332.433,316.37 331.5,313.5 Z"/></g>
<g><path style="opacity:1" fill="#aaaaaa" d="M 1072.5,313.5 C 1071.26,318.913 1069.26,323.913 1066.5,328.5C 1066.51,326.453 1066.84,324.453 1067.5,322.5C 1069.01,319.199 1070.68,316.199 1072.5,313.5 Z"/></g>
<g><path style="opacity:1" fill="#b3b2b2" d="M 301.5,319.5 C 301.573,321.027 300.906,322.027 299.5,322.5C 299.427,320.973 300.094,319.973 301.5,319.5 Z"/></g>
<g><path style="opacity:1" fill="#bebebb" d="M 299.5,322.5 C 298.974,324.23 297.974,325.564 296.5,326.5C 296.554,324.368 297.554,323.035 299.5,322.5 Z"/></g>
<g><path style="opacity:1" fill="#9e9e9e" d="M 338.5,322.5 C 341.086,323.638 342.753,325.638 343.5,328.5C 341.367,326.909 339.701,324.909 338.5,322.5 Z"/></g>
<g><path style="opacity:1" fill="#b4b5b5" d="M 343.5,328.5 C 344.5,328.833 345.167,329.5 345.5,330.5C 344.167,330.5 343.5,329.833 343.5,328.5 Z"/></g>
<g><path style="opacity:1" fill="#a5a4a4" d="M 1066.5,328.5 C 1064.86,333.426 1062.86,338.093 1060.5,342.5C 1061.27,337.14 1063.27,332.474 1066.5,328.5 Z"/></g>
<g><path style="opacity:1" fill="#adacac" d="M 293.5,329.5 C 293.446,331.632 292.446,332.965 290.5,333.5C 291.026,331.77 292.026,330.436 293.5,329.5 Z"/></g>
<g><path style="opacity:1" fill="#a5a3a4" d="M 345.5,330.5 C 347.104,331.287 347.771,332.62 347.5,334.5C 346.326,333.486 345.66,332.153 345.5,330.5 Z"/></g>
<g><path style="opacity:1" fill="#8a8a89" d="M 290.5,334.5 C 289.876,336.754 288.543,338.421 286.5,339.5C 286.738,336.931 288.071,335.265 290.5,334.5 Z"/></g>
<g><path style="opacity:1" fill="#8b8c8b" d="M 1094.5,331.5 C 1094,336.916 1092,341.583 1088.5,345.5C 1090.01,340.492 1092.01,335.826 1094.5,331.5 Z"/></g>
<g><path style="opacity:1" fill="#8e8f8e" d="M 286.5,339.5 C 286.279,341.664 285.279,343.33 283.5,344.5C 283.721,342.336 284.721,340.67 286.5,339.5 Z"/></g>
<g><path style="opacity:1" fill="#818181" d="M 349.5,336.5 C 353.231,339.702 355.564,343.369 356.5,347.5C 353.421,344.35 351.087,340.683 349.5,336.5 Z"/></g>
<g><path style="opacity:1" fill="#a1a1a1" d="M 1060.5,342.5 C 1060.13,344.441 1059.46,346.275 1058.5,348C 1068.16,348.5 1077.83,348.666 1087.5,348.5C 1087.26,347.209 1087.6,346.209 1088.5,345.5C 1088.5,346.833 1088.5,348.167 1088.5,349.5C 1078.17,349.5 1067.83,349.5 1057.5,349.5C 1057.55,346.654 1058.55,344.32 1060.5,342.5 Z"/></g>
<g><path style="opacity:1" fill="#8f8f8e" d="M 283.5,344.5 C 281.45,348.981 279.783,353.648 278.5,358.5C 278.167,358.5 277.833,358.5 277.5,358.5C 278.146,353.222 280.146,348.555 283.5,344.5 Z"/></g>
<g><path style="opacity:1" fill="#a1a1a0" d="M 356.5,348.5 C 358.997,350.827 360.497,353.827 361,357.5C 361.667,364.167 361.667,370.833 361,377.5C 360.617,378.056 360.117,378.389 359.5,378.5C 361.462,368.13 360.462,358.13 356.5,348.5 Z"/></g>
<g><path style="opacity:1" fill="#d2d2d1" d="M 277.5,358.5 C 277.833,358.5 278.167,358.5 278.5,358.5C 277.593,364.106 277.26,369.773 277.5,375.5C 276.167,369.833 276.167,364.167 277.5,358.5 Z"/></g>
<g><path style="opacity:1" fill="#a7a6a6" d="M 359.5,381.5 C 359.245,383.967 358.245,385.967 356.5,387.5C 356.755,385.033 357.755,383.033 359.5,381.5 Z"/></g>
<g><path style="opacity:1" fill="#949493" d="M 356.5,387.5 C 356.445,390.614 355.112,392.948 352.5,394.5C 353.584,391.996 354.917,389.663 356.5,387.5 Z"/></g>
<g><path style="opacity:1" fill="#9b9b99" d="M 277.5,375.5 C 279.357,382.041 282.023,388.374 285.5,394.5C 284.624,394.631 283.957,394.298 283.5,393.5C 280.078,387.902 278.078,381.902 277.5,375.5 Z"/></g>
<g><path style="opacity:1" fill="#a5a5a4" d="M 285.5,394.5 C 286.906,394.973 287.573,395.973 287.5,397.5C 286.094,397.027 285.427,396.027 285.5,394.5 Z"/></g>
<g><path style="opacity:1" fill="#acacaa" d="M 287.5,397.5 C 290.117,398.786 292.45,400.453 294.5,402.5C 291.357,402.031 289.023,400.364 287.5,397.5 Z"/></g>
<g><path style="opacity:1" fill="#858585" d="M 350.5,396.5 C 350.5,398.5 349.5,399.5 347.5,399.5C 348.167,398.167 349.167,397.167 350.5,396.5 Z"/></g>
<g><path style="opacity:1" fill="#7d7e7c" d="M 347.5,399.5 C 347.5,401.5 346.5,402.5 344.5,402.5C 345.167,401.167 346.167,400.167 347.5,399.5 Z"/></g>
<g><path style="opacity:1" fill="#8e8e8e" d="M 344.5,402.5 C 344.027,403.906 343.027,404.573 341.5,404.5C 341.973,403.094 342.973,402.427 344.5,402.5 Z"/></g>
<g><path style="opacity:1" fill="#949493" d="M 296.5,404.5 C 300.56,405.908 304.56,407.408 308.5,409C 312,409.167 315.5,409.333 319,409.5C 326.011,410.203 332.511,408.87 338.5,405.5C 337.309,407.522 335.476,408.855 333,409.5C 323.672,412.085 314.339,412.085 305,409.5C 301.713,408.274 298.879,406.608 296.5,404.5 Z"/></g>
</svg>
