<?xml version="1.0" encoding="UTF-8"?>
<!DOCTYPE svg PUBLIC "-//W3C//DTD SVG 1.1//EN" "http://www.w3.org/Graphics/SVG/1.1/DTD/svg11.dtd">
<svg xmlns="http://www.w3.org/2000/svg" version="1.1" width="1494px" height="452px" style="shape-rendering:geometricPrecision; text-rendering:geometricPrecision; image-rendering:optimizeQuality; fill-rule:evenodd; clip-rule:evenodd" xmlns:xlink="http://www.w3.org/1999/xlink">
<g><path style="opacity:1" fill="transparent" d="M -0.5,-0.5 C 497.5,-0.5 995.5,-0.5 1493.5,-0.5C 1493.5,150.167 1493.5,300.833 1493.5,451.5C 995.5,451.5 497.5,451.5 -0.5,451.5C -0.5,300.833 -0.5,150.167 -0.5,-0.5 Z"/></g>
<g><path style="opacity:1" fill="#959593" d="M 333.5,48.5 C 325.148,47.342 316.815,47.342 308.5,48.5C 308.611,47.8826 308.944,47.3826 309.5,47C 317.737,46.0676 325.737,46.5676 333.5,48.5 Z"/></g>
<g><path style="opacity:1" fill="#f6f5f3" d="M 333.5,48.5 C 347.126,52.8199 358.126,60.8199 366.5,72.5C 397.779,126.892 429.446,181.059 461.5,235C 463.881,238.996 465.548,243.163 466.5,247.5C 466.77,255.555 466.437,263.555 465.5,271.5C 463.991,279.851 460.825,287.517 456,294.5C 448.664,302.211 440.497,308.544 431.5,313.5C 419.67,316.043 407.67,317.043 395.5,316.5C 386.243,313.706 377.576,309.539 369.5,304C 359.389,294.891 349.556,285.391 340,275.5C 339.333,274.167 339.333,272.833 340,271.5C 350.131,265.538 357.964,257.538 363.5,247.5C 366.127,241.743 367.46,235.577 367.5,229C 367.485,225.424 366.818,222.258 365.5,219.5C 364.886,216.565 363.886,213.732 362.5,211C 353.909,199.196 345.409,187.362 337,175.5C 331.796,169.601 325.296,166.268 317.5,165.5C 312.408,165.51 308.075,167.176 304.5,170.5C 302.681,172.088 300.847,173.754 299,175.5C 293.024,184.792 286.691,193.792 280,202.5C 276.866,207.773 274.032,213.107 271.5,218.5C 268.833,225.833 268.833,233.167 271.5,240.5C 275.822,253.782 283.989,264.115 296,271.5C 296.667,272.833 296.667,274.167 296,275.5C 286.594,285.409 276.761,294.742 266.5,303.5C 259.274,309.113 251.274,313.113 242.5,315.5C 233.918,316.47 225.251,316.803 216.5,316.5C 214.374,315.952 212.374,315.285 210.5,314.5C 208.215,312.541 205.549,311.208 202.5,310.5C 189.191,303.52 180.191,292.854 175.5,278.5C 172.941,267.683 171.941,256.683 172.5,245.5C 174.005,241.953 175.505,238.287 177,234.5C 186.163,219.759 194.829,204.759 203,189.5C 204.067,187.308 205.567,185.642 207.5,184.5C 210.444,181.409 212.444,177.743 213.5,173.5C 217.132,166.246 221.132,159.246 225.5,152.5C 227.71,150.624 229.877,148.624 232,146.5C 235.581,139.67 239.414,133.003 243.5,126.5C 244.325,125.614 245.325,125.281 246.5,125.5C 245.459,122.458 245.459,119.458 246.5,116.5C 247.552,116.649 248.552,116.483 249.5,116C 250.257,114.488 251.257,113.154 252.5,112C 251.483,110.951 251.316,109.784 252,108.5C 252.667,107.167 253.333,107.167 254,108.5C 258.32,102.582 260.82,96.2489 261.5,89.5C 266.161,81.8792 270.828,74.2125 275.5,66.5C 281.898,59.2737 289.565,53.7737 298.5,50C 301.793,49.1744 305.126,48.6744 308.5,48.5C 316.815,47.342 325.148,47.342 333.5,48.5 Z"/></g>
<g><path style="opacity:1" fill="#dfdfde" d="M 261.5,89.5 C 260.82,96.2489 258.32,102.582 254,108.5C 253.333,107.167 252.667,107.167 252,108.5C 251.316,109.784 251.483,110.951 252.5,112C 251.257,113.154 250.257,114.488 249.5,116C 248.552,116.483 247.552,116.649 246.5,116.5C 245.459,119.458 245.459,122.458 246.5,125.5C 245.325,125.281 244.325,125.614 243.5,126.5C 239.414,133.003 235.581,139.67 232,146.5C 229.877,148.624 227.71,150.624 225.5,152.5C 236.754,131.072 248.754,110.072 261.5,89.5 Z"/></g>
<g><path style="opacity:1" fill="#f5f4f1" d="M 1205.5,181.5 C 1214.99,182.494 1224.65,182.827 1234.5,182.5C 1234.5,189.833 1234.5,197.167 1234.5,204.5C 1224.5,204.5 1214.5,204.5 1204.5,204.5C 1204.33,222.17 1204.5,239.836 1205,257.5C 1205.28,258.416 1205.78,259.082 1206.5,259.5C 1206.75,266.312 1209.75,271.312 1215.5,274.5C 1221.37,275.809 1227.37,275.809 1233.5,274.5C 1234.5,282.807 1234.83,291.14 1234.5,299.5C 1231.48,299.335 1228.48,299.502 1225.5,300C 1224.58,300.278 1223.92,300.778 1223.5,301.5C 1221.5,301.5 1219.5,301.5 1217.5,301.5C 1213.83,301.5 1210.17,301.5 1206.5,301.5C 1194.72,300.607 1185.72,295.107 1179.5,285C 1178.71,282.901 1178.38,280.734 1178.5,278.5C 1177.52,253.878 1177.19,229.211 1177.5,204.5C 1171.17,204.5 1164.83,204.5 1158.5,204.5C 1158.5,196.833 1158.5,189.167 1158.5,181.5C 1164.83,181.5 1171.17,181.5 1177.5,181.5C 1177.5,172.167 1177.5,162.833 1177.5,153.5C 1180.52,153.665 1183.52,153.498 1186.5,153C 1188.83,151.957 1191.17,151.124 1193.5,150.5C 1195.26,149.539 1197.26,149.205 1199.5,149.5C 1201.44,148.85 1203.44,148.517 1205.5,148.5C 1205.5,159.5 1205.5,170.5 1205.5,181.5 Z"/></g>
<g><path style="opacity:1" fill="#acacac" d="M 1193.5,150.5 C 1191.17,151.124 1188.83,151.957 1186.5,153C 1183.52,153.498 1180.52,153.665 1177.5,153.5C 1177.5,162.833 1177.5,172.167 1177.5,181.5C 1171.17,181.5 1164.83,181.5 1158.5,181.5C 1164.31,180.51 1170.31,180.177 1176.5,180.5C 1176.5,171.167 1176.5,161.833 1176.5,152.5C 1181.98,151.112 1187.65,150.446 1193.5,150.5 Z"/></g>
<g><path style="opacity:1" fill="#878683" d="M 1235.5,181.5 C 1225.5,181.5 1215.5,181.5 1205.5,181.5C 1205.5,170.5 1205.5,159.5 1205.5,148.5C 1203.44,148.517 1201.44,148.85 1199.5,149.5C 1201.28,147.656 1203.61,146.99 1206.5,147.5C 1206.5,158.5 1206.5,169.5 1206.5,180.5C 1216.35,180.173 1226.01,180.506 1235.5,181.5 Z"/></g>
<g><path style="opacity:1" fill="#5d5c5a" d="M 317.5,165.5 C 313.189,167.04 308.856,168.707 304.5,170.5C 308.075,167.176 312.408,165.51 317.5,165.5 Z"/></g>
<g><path style="opacity:1" fill="#929291" d="M 756.5,178.5 C 747.47,177.192 738.47,177.192 729.5,178.5C 733.445,177.175 737.778,176.508 742.5,176.5C 746.833,176.667 751.167,176.833 755.5,177C 756.056,177.383 756.389,177.883 756.5,178.5 Z"/></g>
<g><path style="opacity:1" fill="#979796" d="M 892.5,177.5 C 884.466,177.302 876.466,177.635 868.5,178.5C 868.611,177.883 868.944,177.383 869.5,177C 877.345,176.178 885.011,176.344 892.5,177.5 Z"/></g>
<g><path style="opacity:1" fill="#6c6b69" d="M 1311.5,178.5 C 1307.83,178.5 1304.17,178.5 1300.5,178.5C 1304.17,175.833 1307.83,175.833 1311.5,178.5 Z"/></g>
<g><path style="opacity:1" fill="#c0c0bf" d="M 613.5,186.5 C 608.949,184.314 604.283,182.314 599.5,180.5C 585.341,178.195 571.674,179.529 558.5,184.5C 560.83,182.71 563.497,181.21 566.5,180C 577.802,177.058 589.136,176.891 600.5,179.5C 605.438,180.907 609.771,183.241 613.5,186.5 Z"/></g>
<g><path style="opacity:1" fill="#afafaf" d="M 213.5,173.5 C 212.444,177.743 210.444,181.409 207.5,184.5C 207.519,182.94 207.852,181.44 208.5,180C 210.087,177.586 211.754,175.419 213.5,173.5 Z"/></g>
<g><path style="opacity:1" fill="#000000" d="M 674.5,180.5 C 674.5,180.833 674.5,181.167 674.5,181.5C 674.5,237.167 674.5,292.833 674.5,348.5C 684.319,349.494 694.319,349.827 704.5,349.5C 704.5,328.5 704.5,307.5 704.5,286.5C 706.567,288.227 708.233,290.227 709.5,292.5C 708.504,292.586 707.671,292.252 707,291.5C 706.667,310.833 706.333,330.167 706,349.5C 705.5,350 705,350.5 704.5,351C 693.923,351.819 683.423,351.652 673,350.5C 672.167,293.497 672.333,236.497 673.5,179.5C 674.107,179.624 674.44,179.957 674.5,180.5 Z"/></g>
<g><path style="opacity:1" fill="#f4f3f1" d="M 613.5,186.5 C 617.528,188.868 620.861,191.868 623.5,195.5C 624.485,191.366 624.818,187.032 624.5,182.5C 633.5,182.5 642.5,182.5 651.5,182.5C 651.5,221.5 651.5,260.5 651.5,299.5C 642.5,299.5 633.5,299.5 624.5,299.5C 624.5,294.833 624.5,290.167 624.5,285.5C 623.209,285.263 622.209,285.596 621.5,286.5C 615.265,294.416 607.265,299.416 597.5,301.5C 588.833,302.833 580.167,302.833 571.5,301.5C 569.116,301.557 566.782,301.223 564.5,300.5C 546.085,292.57 534.419,278.903 529.5,259.5C 527.857,246.393 528.19,233.393 530.5,220.5C 533.457,207.537 540.124,196.87 550.5,188.5C 552.846,186.489 555.513,185.156 558.5,184.5C 571.674,179.529 585.341,178.195 599.5,180.5C 604.283,182.314 608.949,184.314 613.5,186.5 Z"/></g>
<g><path style="opacity:1" fill="#777675" d="M 652.5,181.5 C 642.985,181.173 633.652,181.506 624.5,182.5C 624.818,187.032 624.485,191.366 623.5,195.5C 623.5,190.5 623.5,185.5 623.5,180.5C 633.348,180.173 643.014,180.506 652.5,181.5 Z"/></g>
<g><path style="opacity:1" fill="#6c6b6a" d="M 674.5,181.5 C 674.5,181.167 674.5,180.833 674.5,180.5C 684.167,180.5 693.833,180.5 703.5,180.5C 703.5,185.5 703.5,190.5 703.5,195.5C 703.167,195.5 702.833,195.5 702.5,195.5C 702.5,190.833 702.5,186.167 702.5,181.5C 693.167,181.5 683.833,181.5 674.5,181.5 Z"/></g>
<g><path style="opacity:1" fill="#f3f2f0" d="M 756.5,178.5 C 776.127,183.785 789.46,196.119 796.5,215.5C 797.269,218.115 797.603,220.781 797.5,223.5C 798.833,234.5 798.833,245.5 797.5,256.5C 791.059,285.799 772.893,301.465 743,303.5C 731.88,303.688 722.047,300.355 713.5,293.5C 712.264,292.754 710.93,292.421 709.5,292.5C 708.233,290.227 706.567,288.227 704.5,286.5C 704.167,286.5 703.833,286.5 703.5,286.5C 703.607,284.621 703.107,284.288 702,285.5C 701.5,305.831 701.333,326.164 701.5,346.5C 693.5,346.5 685.5,346.5 677.5,346.5C 677.5,292.167 677.5,237.833 677.5,183.5C 685.167,183.5 692.833,183.5 700.5,183.5C 700.334,187.846 700.501,192.179 701,196.5C 702.388,197.554 703.888,197.72 705.5,197C 704.944,196.617 704.611,196.117 704.5,195.5C 709.598,188.738 715.932,183.404 723.5,179.5C 725.453,178.844 727.453,178.511 729.5,178.5C 738.47,177.192 747.47,177.192 756.5,178.5 Z"/></g>
<g><path style="opacity:1" fill="#80807e" d="M 814.5,181.5 C 823.652,180.506 832.985,180.173 842.5,180.5C 842.334,185.179 842.501,189.845 843,194.5C 844.704,192.627 846.537,190.96 848.5,189.5C 847.388,192.946 845.055,194.946 841.5,195.5C 841.5,190.833 841.5,186.167 841.5,181.5C 832.5,181.5 823.5,181.5 814.5,181.5 Z"/></g>
<g><path style="opacity:1" fill="#f3f2f0" d="M 892.5,177.5 C 915.821,182.821 930.154,197.154 935.5,220.5C 935.963,223.33 936.629,225.997 937.5,228.5C 938.806,234.599 938.806,240.599 937.5,246.5C 936.647,251.817 935.647,257.151 934.5,262.5C 933.39,266.721 931.724,270.721 929.5,274.5C 927.896,275.287 927.229,276.62 927.5,278.5C 920.624,288.443 911.457,295.777 900,300.5C 897.208,301.216 894.374,301.549 891.5,301.5C 884.5,302.833 877.5,302.833 870.5,301.5C 859.692,300.076 850.859,295.076 844,286.5C 843.5,307.164 843.333,327.831 843.5,348.5C 833.833,348.5 824.167,348.5 814.5,348.5C 814.5,292.833 814.5,237.167 814.5,181.5C 823.5,181.5 832.5,181.5 841.5,181.5C 841.5,186.167 841.5,190.833 841.5,195.5C 845.055,194.946 847.388,192.946 848.5,189.5C 853.912,183.582 860.578,179.916 868.5,178.5C 876.466,177.635 884.466,177.302 892.5,177.5 Z"/></g>
<g><path style="opacity:1" fill="#6f6e6d" d="M 951.5,181.5 C 960.986,180.506 970.652,180.173 980.5,180.5C 980.817,184.702 980.483,188.702 979.5,192.5C 979.5,188.833 979.5,185.167 979.5,181.5C 970.5,181.5 961.5,181.5 952.5,181.5C 952.167,181.5 951.833,181.5 951.5,181.5 Z"/></g>
<g><path style="opacity:1" fill="#737271" d="M 1061.5,182.5 C 1055.91,181.855 1050.24,181.522 1044.5,181.5C 1038.79,181.505 1033.46,182.172 1028.5,183.5C 1027.6,182.791 1027.26,181.791 1027.5,180.5C 1039.22,179.856 1050.55,180.522 1061.5,182.5 Z"/></g>
<g><path style="opacity:1" fill="#716f6e" d="M 1123.5,181.5 C 1133.32,180.506 1143.32,180.173 1153.5,180.5C 1153.84,182.483 1153.18,183.817 1151.5,184.5C 1151.8,183.85 1152.14,183.183 1152.5,182.5C 1142.86,181.502 1133.19,181.168 1123.5,181.5 Z"/></g>
<g><path style="opacity:1" fill="#fefdfd" d="M 702.5,195.5 C 702.833,195.5 703.167,195.5 703.5,195.5C 703.833,195.5 704.167,195.5 704.5,195.5C 704.611,196.117 704.944,196.617 705.5,197C 703.888,197.72 702.388,197.554 701,196.5C 700.501,192.179 700.334,187.846 700.5,183.5C 692.833,183.5 685.167,183.5 677.5,183.5C 677.5,237.833 677.5,292.167 677.5,346.5C 685.5,346.5 693.5,346.5 701.5,346.5C 701.333,326.164 701.5,305.831 702,285.5C 703.107,284.288 703.607,284.621 703.5,286.5C 703.5,307.167 703.5,327.833 703.5,348.5C 694.167,348.5 684.833,348.5 675.5,348.5C 675.5,293.167 675.5,237.833 675.5,182.5C 684.167,182.5 692.833,182.5 701.5,182.5C 701.182,187.032 701.515,191.366 702.5,195.5 Z"/></g>
<g><path style="opacity:1" fill="#c2c2c1" d="M 1008.5,178.5 C 1006.52,180.011 1004.19,180.844 1001.5,181C 1000.37,182.016 1000.7,182.683 1002.5,183C 1000.19,182.845 997.856,182.845 995.5,183C 991.787,185.186 988.121,187.352 984.5,189.5C 991.033,182.761 999.033,179.094 1008.5,178.5 Z"/></g>
<g><path style="opacity:1" fill="#f3f2f0" d="M 1300.5,178.5 C 1304.17,178.5 1307.83,178.5 1311.5,178.5C 1322.65,178.294 1332.65,181.627 1341.5,188.5C 1345.14,192.14 1348.81,195.806 1352.5,199.5C 1358.73,209.636 1362.4,220.636 1363.5,232.5C 1363.5,237.5 1363.5,242.5 1363.5,247.5C 1334.33,247.169 1305.33,247.502 1276.5,248.5C 1276.5,248.833 1276.5,249.167 1276.5,249.5C 1276.34,251.857 1276.5,254.19 1277,256.5C 1277.38,257.056 1277.88,257.389 1278.5,257.5C 1281.06,264.996 1285.73,270.662 1292.5,274.5C 1297.87,277.896 1303.87,279.229 1310.5,278.5C 1314.24,278.486 1317.57,277.82 1320.5,276.5C 1324.55,275.647 1328.55,274.481 1332.5,273C 1335.68,270.818 1338.84,268.652 1342,266.5C 1346.64,271.143 1350.97,276.143 1355,281.5C 1355.31,285.997 1353.14,288.83 1348.5,290C 1347.35,291.649 1346.02,293.149 1344.5,294.5C 1340.58,295.964 1336.92,297.631 1333.5,299.5C 1327.21,300.054 1321.21,301.387 1315.5,303.5C 1306.75,303.672 1298.08,303.006 1289.5,301.5C 1287.9,301.768 1286.57,301.434 1285.5,300.5C 1283.97,299.691 1282.31,299.024 1280.5,298.5C 1262.22,291.217 1251.22,277.883 1247.5,258.5C 1245.36,247.904 1245.02,237.238 1246.5,226.5C 1247.37,224.283 1247.7,221.95 1247.5,219.5C 1254.76,200.906 1267.76,187.906 1286.5,180.5C 1291.05,179.015 1295.71,178.348 1300.5,178.5 Z"/></g>
<g><path style="opacity:1" fill="#f4f3f0" d="M 1008.5,178.5 C 1011.83,178.5 1015.17,178.5 1018.5,178.5C 1018.5,187.833 1018.5,197.167 1018.5,206.5C 1005.98,205.665 995.311,209.665 986.5,218.5C 983.909,220.894 982.242,223.894 981.5,227.5C 980.5,251.491 980.167,275.491 980.5,299.5C 971.167,299.5 961.833,299.5 952.5,299.5C 952.5,260.167 952.5,220.833 952.5,181.5C 961.5,181.5 970.5,181.5 979.5,181.5C 979.5,185.167 979.5,188.833 979.5,192.5C 979.56,193.043 979.893,193.376 980.5,193.5C 981.521,191.812 982.855,190.479 984.5,189.5C 988.121,187.352 991.787,185.186 995.5,183C 997.856,182.845 1000.19,182.845 1002.5,183C 1000.7,182.683 1000.37,182.016 1001.5,181C 1004.19,180.844 1006.52,180.011 1008.5,178.5 Z"/></g>
<g><path style="opacity:1" fill="#a4a4a4" d="M 814.5,181.5 C 814.5,237.167 814.5,292.833 814.5,348.5C 824.167,348.5 833.833,348.5 843.5,348.5C 833.681,349.494 823.681,349.827 813.5,349.5C 813.168,293.331 813.501,237.331 814.5,181.5 Z"/></g>
<g><path style="opacity:1" fill="#bbbbb9" d="M 1205.5,181.5 C 1215.5,181.5 1225.5,181.5 1235.5,181.5C 1235.5,189.5 1235.5,197.5 1235.5,205.5C 1225.83,205.5 1216.17,205.5 1206.5,205.5C 1206.5,223.5 1206.5,241.5 1206.5,259.5C 1205.78,259.082 1205.28,258.416 1205,257.5C 1204.5,239.836 1204.33,222.17 1204.5,204.5C 1214.5,204.5 1224.5,204.5 1234.5,204.5C 1234.5,197.167 1234.5,189.833 1234.5,182.5C 1224.65,182.827 1214.99,182.494 1205.5,181.5 Z"/></g>
<g><path style="opacity:1" fill="#949292" d="M 1147.5,195.5 C 1147.02,198.438 1146.02,201.104 1144.5,203.5C 1144.49,200.374 1145.49,197.707 1147.5,195.5 Z"/></g>
<g><path style="opacity:1" fill="#908f8f" d="M 1313.5,202.5 C 1308.41,202.221 1303.41,202.555 1298.5,203.5C 1300.57,202.191 1303.07,201.525 1306,201.5C 1308.69,201.503 1311.19,201.836 1313.5,202.5 Z"/></g>
<g><path style="opacity:1" fill="#9c9b9b" d="M 600.5,205.5 C 594.491,205.334 588.491,205.501 582.5,206C 580.132,206.856 577.798,207.69 575.5,208.5C 576.98,206.588 578.98,205.421 581.5,205C 588.014,204.18 594.347,204.347 600.5,205.5 Z"/></g>
<g><path style="opacity:1" fill="#959493" d="M 744.5,205.5 C 738.741,205.214 733.075,205.548 727.5,206.5C 729.915,205.186 732.748,204.519 736,204.5C 739.021,204.502 741.854,204.836 744.5,205.5 Z"/></g>
<g><path style="opacity:1" fill="#121210" d="M 1313.5,202.5 C 1320.53,205.211 1325.86,209.877 1329.5,216.5C 1331.51,220.186 1332.51,224.186 1332.5,228.5C 1313.47,229.154 1294.8,228.487 1276.5,226.5C 1278.2,220.765 1280.87,215.431 1284.5,210.5C 1285.5,209.5 1286.5,208.5 1287.5,207.5C 1291.21,206.121 1294.88,204.787 1298.5,203.5C 1303.41,202.555 1308.41,202.221 1313.5,202.5 Z"/></g>
<g><path style="opacity:1" fill="#101110" d="M 600.5,205.5 C 612.311,210.321 619.977,218.987 623.5,231.5C 623.664,238.202 623.331,244.869 622.5,251.5C 615.476,270.702 601.81,278.202 581.5,274C 569.826,269.821 562.493,261.655 559.5,249.5C 555.938,232.193 561.272,218.526 575.5,208.5C 577.798,207.69 580.132,206.856 582.5,206C 588.491,205.501 594.491,205.334 600.5,205.5 Z"/></g>
<g><path style="opacity:1" fill="#10100f" d="M 906.5,231.5 C 907.632,242.035 905.966,252.035 901.5,261.5C 897.45,266.691 892.45,270.691 886.5,273.5C 879.55,274.593 872.55,274.76 865.5,274C 863.372,273.345 861.372,272.511 859.5,271.5C 850.921,266.306 845.254,258.973 842.5,249.5C 842.209,243.077 842.542,236.744 843.5,230.5C 847.452,213.939 857.952,205.606 875,205.5C 892.021,206.361 902.521,215.027 906.5,231.5 Z"/></g>
<g><path style="opacity:1" fill="#111110" d="M 744.5,205.5 C 754.026,208.447 761.026,214.447 765.5,223.5C 766.678,226.391 767.345,229.391 767.5,232.5C 768.833,237.833 768.833,243.167 767.5,248.5C 766.657,254.353 764.49,259.687 761,264.5C 757.631,267.442 754.131,270.276 750.5,273C 748.942,273.21 747.609,273.71 746.5,274.5C 739.412,274.795 732.412,274.462 725.5,273.5C 710.394,268.177 702.727,257.344 702.5,241C 702.71,225.257 709.71,213.923 723.5,207C 724.793,206.51 726.127,206.343 727.5,206.5C 733.075,205.548 738.741,205.214 744.5,205.5 Z"/></g>
<g><path style="opacity:1" fill="#bfbebe" d="M 624.5,182.5 C 633.652,181.506 642.985,181.173 652.5,181.5C 652.5,221.167 652.5,260.833 652.5,300.5C 642.833,300.5 633.167,300.5 623.5,300.5C 624.103,295.381 623.436,290.715 621.5,286.5C 622.209,285.596 623.209,285.263 624.5,285.5C 624.5,290.167 624.5,294.833 624.5,299.5C 633.5,299.5 642.5,299.5 651.5,299.5C 651.5,260.5 651.5,221.5 651.5,182.5C 642.5,182.5 633.5,182.5 624.5,182.5 Z"/></g>
<g><path style="opacity:1" fill="#696767" d="M 1247.5,219.5 C 1247.7,221.95 1247.37,224.283 1246.5,226.5C 1246.17,226.5 1245.83,226.5 1245.5,226.5C 1245.93,223.99 1246.59,221.657 1247.5,219.5 Z"/></g>
<g><path style="opacity:1" fill="#ababab" d="M 365.5,219.5 C 366.818,222.258 367.485,225.424 367.5,229C 367.46,235.577 366.127,241.743 363.5,247.5C 364.809,241.398 365.809,235.232 366.5,229C 366.458,225.749 366.125,222.583 365.5,219.5 Z"/></g>
<g><path style="opacity:1" fill="#818080" d="M 935.5,220.5 C 936.117,220.611 936.617,220.944 937,221.5C 937.497,223.81 937.663,226.143 937.5,228.5C 936.629,225.997 935.963,223.33 935.5,220.5 Z"/></g>
<g><path style="opacity:1" fill="#858482" d="M 271.5,218.5 C 271.5,225.833 271.5,233.167 271.5,240.5C 268.833,233.167 268.833,225.833 271.5,218.5 Z"/></g>
<g><path style="opacity:1" fill="#a09f9f" d="M 1136.5,223.5 C 1134.32,231.526 1131.32,239.193 1127.5,246.5C 1129.7,238.444 1132.7,230.777 1136.5,223.5 Z"/></g>
<g><path style="opacity:1" fill="#adadac" d="M 1329.5,216.5 C 1331.13,216.825 1332.13,217.825 1332.5,219.5C 1333.33,222.783 1333.66,226.116 1333.5,229.5C 1313.83,229.5 1294.17,229.5 1274.5,229.5C 1274.29,227.821 1274.95,226.821 1276.5,226.5C 1294.8,228.487 1313.47,229.154 1332.5,228.5C 1332.51,224.186 1331.51,220.186 1329.5,216.5 Z"/></g>
<g><path style="opacity:1" fill="#acacab" d="M 530.5,220.5 C 528.19,233.393 527.857,246.393 529.5,259.5C 527.986,253.405 527.32,247.072 527.5,240.5C 527.59,234.982 527.924,229.482 528.5,224C 528.608,222.319 529.275,221.152 530.5,220.5 Z"/></g>
<g><path style="opacity:1" fill="#969695" d="M 623.5,231.5 C 624.653,237.319 624.819,243.319 624,249.5C 623.722,250.416 623.222,251.082 622.5,251.5C 623.331,244.869 623.664,238.202 623.5,231.5 Z"/></g>
<g><path style="opacity:1" fill="#adadac" d="M 797.5,223.5 C 798.117,223.611 798.617,223.944 799,224.5C 799.667,234.833 799.667,245.167 799,255.5C 798.617,256.056 798.117,256.389 797.5,256.5C 798.833,245.5 798.833,234.5 797.5,223.5 Z"/></g>
<g><path style="opacity:1" fill="#50504e" d="M 1245.5,231.5 C 1244.21,238.154 1244.21,244.82 1245.5,251.5C 1244.88,251.389 1244.38,251.056 1244,250.5C 1243.33,244.5 1243.33,238.5 1244,232.5C 1244.38,231.944 1244.88,231.611 1245.5,231.5 Z"/></g>
<g><path style="opacity:1" fill="#b3b3b3" d="M 1158.5,204.5 C 1164.83,204.5 1171.17,204.5 1177.5,204.5C 1177.19,229.211 1177.52,253.878 1178.5,278.5C 1177.88,278.389 1177.38,278.056 1177,277.5C 1176.5,253.502 1176.33,229.502 1176.5,205.5C 1170.31,205.823 1164.31,205.49 1158.5,204.5 Z"/></g>
<g><path style="opacity:1" fill="#c2c2c1" d="M 1245.5,226.5 C 1245.83,226.5 1246.17,226.5 1246.5,226.5C 1245.02,237.238 1245.36,247.904 1247.5,258.5C 1246.88,258.389 1246.38,258.056 1246,257.5C 1245.5,255.527 1245.34,253.527 1245.5,251.5C 1244.21,244.82 1244.21,238.154 1245.5,231.5C 1245.5,229.833 1245.5,228.167 1245.5,226.5 Z"/></g>
<g><path style="opacity:1" fill="#828281" d="M 1052.5,238.5 C 1053.92,240.515 1054.59,242.848 1054.5,245.5C 1053.08,243.485 1052.41,241.152 1052.5,238.5 Z"/></g>
<g><path style="opacity:1" fill="#6e6c6a" d="M 767.5,232.5 C 768.117,232.611 768.617,232.944 769,233.5C 769.167,235.5 769.333,237.5 769.5,239.5C 769.657,242.814 768.991,245.814 767.5,248.5C 768.833,243.167 768.833,237.833 767.5,232.5 Z"/></g>
<g><path style="opacity:1" fill="#949493" d="M 843.5,230.5 C 842.542,236.744 842.209,243.077 842.5,249.5C 841.835,246.518 841.502,243.352 841.5,240C 841.515,236.424 842.182,233.258 843.5,230.5 Z"/></g>
<g><path style="opacity:1" fill="#949493" d="M 1363.5,232.5 C 1364.49,237.64 1364.82,242.974 1364.5,248.5C 1335.17,248.5 1305.83,248.5 1276.5,248.5C 1305.33,247.502 1334.33,247.169 1363.5,247.5C 1363.5,242.5 1363.5,237.5 1363.5,232.5 Z"/></g>
<g><path style="opacity:1" fill="#868685" d="M 906.5,231.5 C 908.484,241.208 907.484,250.708 903.5,260C 903.164,261.03 902.497,261.53 901.5,261.5C 905.966,252.035 907.632,242.035 906.5,231.5 Z"/></g>
<g><path style="opacity:1" fill="#969696" d="M 1127.5,246.5 C 1127.51,249.626 1126.51,252.293 1124.5,254.5C 1124.98,251.562 1125.98,248.896 1127.5,246.5 Z"/></g>
<g><path style="opacity:1" fill="#818180" d="M 1276.5,249.5 C 1277.37,252.003 1278.04,254.67 1278.5,257.5C 1277.88,257.389 1277.38,257.056 1277,256.5C 1276.5,254.19 1276.34,251.857 1276.5,249.5 Z"/></g>
<g><path style="opacity:1" fill="#7b7b79" d="M 172.5,245.5 C 171.941,256.683 172.941,267.683 175.5,278.5C 174.011,276.884 173.011,274.884 172.5,272.5C 171.178,263.342 171.178,254.342 172.5,245.5 Z"/></g>
<g><path style="opacity:1" fill="#a9a8a8" d="M 937.5,246.5 C 937.827,252.208 936.827,257.541 934.5,262.5C 935.647,257.151 936.647,251.817 937.5,246.5 Z"/></g>
<g><path style="opacity:1" fill="#70706f" d="M 466.5,247.5 C 467.656,254.989 467.822,262.655 467,270.5C 466.617,271.056 466.117,271.389 465.5,271.5C 466.437,263.555 466.77,255.555 466.5,247.5 Z"/></g>
<g><path style="opacity:1" fill="#cecece" d="M 674.5,181.5 C 683.833,181.5 693.167,181.5 702.5,181.5C 702.5,186.167 702.5,190.833 702.5,195.5C 701.515,191.366 701.182,187.032 701.5,182.5C 692.833,182.5 684.167,182.5 675.5,182.5C 675.5,237.833 675.5,293.167 675.5,348.5C 675.167,348.5 674.833,348.5 674.5,348.5C 674.5,292.833 674.5,237.167 674.5,181.5 Z"/></g>
<g><path style="opacity:1" fill="#999897" d="M 725.5,273.5 C 732.412,274.462 739.412,274.795 746.5,274.5C 743.183,275.165 739.683,275.499 736,275.5C 732.098,275.488 728.598,274.821 725.5,273.5 Z"/></g>
<g><path style="opacity:1" fill="#9c9c9b" d="M 859.5,271.5 C 861.372,272.511 863.372,273.345 865.5,274C 872.55,274.76 879.55,274.593 886.5,273.5C 886.389,274.117 886.056,274.617 885.5,275C 878.5,275.667 871.5,275.667 864.5,275C 862.119,274.777 860.453,273.61 859.5,271.5 Z"/></g>
<g><path style="opacity:1" fill="#7b797a" d="M 929.5,274.5 C 929.34,276.153 928.674,277.486 927.5,278.5C 927.229,276.62 927.896,275.287 929.5,274.5 Z"/></g>
<g><path style="opacity:1" fill="#bbbbbb" d="M 951.5,181.5 C 951.833,181.5 952.167,181.5 952.5,181.5C 952.5,220.833 952.5,260.167 952.5,299.5C 961.833,299.5 971.167,299.5 980.5,299.5C 980.167,275.491 980.5,251.491 981.5,227.5C 982.242,223.894 983.909,220.894 986.5,218.5C 984.984,221.704 983.651,225.037 982.5,228.5C 981.5,252.491 981.167,276.491 981.5,300.5C 971.5,300.5 961.5,300.5 951.5,300.5C 951.5,260.833 951.5,221.167 951.5,181.5 Z"/></g>
<g><path style="opacity:1" fill="#a3a2a2" d="M 1292.5,274.5 C 1301.6,277.486 1310.94,278.153 1320.5,276.5C 1317.57,277.82 1314.24,278.486 1310.5,278.5C 1303.87,279.229 1297.87,277.896 1292.5,274.5 Z"/></g>
<g><path style="opacity:1" fill="#ababaa" d="M 703.5,286.5 C 703.833,286.5 704.167,286.5 704.5,286.5C 704.5,307.5 704.5,328.5 704.5,349.5C 694.319,349.827 684.319,349.494 674.5,348.5C 674.833,348.5 675.167,348.5 675.5,348.5C 684.833,348.5 694.167,348.5 703.5,348.5C 703.5,327.833 703.5,307.167 703.5,286.5 Z"/></g>
<g><path style="opacity:1" fill="#8d8e8c" d="M 1072.5,286.5 C 1073.92,288.515 1074.59,290.848 1074.5,293.5C 1073.08,291.485 1072.41,289.152 1072.5,286.5 Z"/></g>
<g><path style="opacity:1" fill="#a7a7a4" d="M 1223.5,301.5 C 1223.92,300.778 1224.58,300.278 1225.5,300C 1228.48,299.502 1231.48,299.335 1234.5,299.5C 1234.83,291.14 1234.5,282.807 1233.5,274.5C 1227.37,275.809 1221.37,275.809 1215.5,274.5C 1222.2,274.664 1228.87,274.331 1235.5,273.5C 1235.5,282.5 1235.5,291.5 1235.5,300.5C 1231.48,300.646 1227.48,300.979 1223.5,301.5 Z"/></g>
<g><path style="opacity:1" fill="#f2f1ef" d="M 1061.5,182.5 C 1068.25,200.683 1075.59,218.683 1083.5,236.5C 1083.86,246.156 1086.2,254.489 1090.5,261.5C 1091.83,261.5 1093.17,261.5 1094.5,261.5C 1094.5,259.833 1094.5,258.167 1094.5,256.5C 1099.19,243.446 1104.19,230.446 1109.5,217.5C 1112.82,213.494 1114.82,208.827 1115.5,203.5C 1115.5,202.833 1115.5,202.167 1115.5,201.5C 1117.09,199.887 1118.09,197.887 1118.5,195.5C 1118.5,194.833 1118.5,194.167 1118.5,193.5C 1120.09,191.887 1121.09,189.887 1121.5,187.5C 1121.26,185.102 1121.93,183.102 1123.5,181.5C 1133.19,181.168 1142.86,181.502 1152.5,182.5C 1152.14,183.183 1151.8,183.85 1151.5,184.5C 1150.97,188.549 1149.63,192.215 1147.5,195.5C 1145.49,197.707 1144.49,200.374 1144.5,203.5C 1141.83,210.167 1139.17,216.833 1136.5,223.5C 1132.7,230.777 1129.7,238.444 1127.5,246.5C 1125.98,248.896 1124.98,251.562 1124.5,254.5C 1119.92,266.005 1115.59,277.671 1111.5,289.5C 1108.25,292.681 1106.59,296.681 1106.5,301.5C 1105.57,302.568 1105.23,303.901 1105.5,305.5C 1103.82,306.183 1103.16,307.517 1103.5,309.5C 1099.05,319.599 1095.05,329.932 1091.5,340.5C 1089.62,341.895 1088.62,343.895 1088.5,346.5C 1088.5,347.167 1088.5,347.833 1088.5,348.5C 1078.49,348.666 1068.49,348.5 1058.5,348C 1059.46,346.275 1060.13,344.441 1060.5,342.5C 1060.84,340.146 1061.34,337.813 1062,335.5C 1065.21,327.848 1068.71,320.515 1072.5,313.5C 1073.69,310.141 1075.19,306.807 1077,303.5C 1077.78,301.613 1077.61,299.946 1076.5,298.5C 1075.98,296.694 1075.31,295.028 1074.5,293.5C 1074.59,290.848 1073.92,288.515 1072.5,286.5C 1071.41,286.38 1070.75,285.713 1070.5,284.5C 1065.18,271.508 1059.85,258.508 1054.5,245.5C 1054.59,242.848 1053.92,240.515 1052.5,238.5C 1044.49,220.155 1036.49,201.822 1028.5,183.5C 1033.46,182.172 1038.79,181.505 1044.5,181.5C 1050.24,181.522 1055.91,181.855 1061.5,182.5 Z"/></g>
<g><path style="opacity:1" fill="#d2d2d1" d="M 1083.5,236.5 C 1086.49,244.426 1089.49,252.426 1092.5,260.5C 1093.17,259.051 1093.84,257.718 1094.5,256.5C 1094.5,258.167 1094.5,259.833 1094.5,261.5C 1093.17,261.5 1091.83,261.5 1090.5,261.5C 1086.2,254.489 1083.86,246.156 1083.5,236.5 Z"/></g>
<g><path style="opacity:1" fill="#a1a09f" d="M 1115.5,203.5 C 1114.82,208.827 1112.82,213.494 1109.5,217.5C 1110.82,213.516 1112.16,209.516 1113.5,205.5C 1113.75,204.287 1114.41,203.62 1115.5,203.5 Z"/></g>
<g><path style="opacity:1" fill="#7e7d7b" d="M 1118.5,195.5 C 1118.09,197.887 1117.09,199.887 1115.5,201.5C 1115.62,198.895 1116.62,196.895 1118.5,195.5 Z"/></g>
<g><path style="opacity:1" fill="#757373" d="M 1121.5,187.5 C 1121.09,189.887 1120.09,191.887 1118.5,193.5C 1118.62,190.895 1119.62,188.895 1121.5,187.5 Z"/></g>
<g><path style="opacity:1" fill="#a5a5a4" d="M 1111.5,289.5 C 1109.8,293.563 1108.13,297.563 1106.5,301.5C 1106.59,296.681 1108.25,292.681 1111.5,289.5 Z"/></g>
<g><path style="opacity:1" fill="#737473" d="M 1280.5,298.5 C 1282.31,299.024 1283.97,299.691 1285.5,300.5C 1283.22,300.923 1281.55,300.256 1280.5,298.5 Z"/></g>
<g><path style="opacity:1" fill="#8f8f8e" d="M 571.5,301.5 C 580.167,302.833 588.833,302.833 597.5,301.5C 597.389,302.117 597.056,302.617 596.5,303C 588.5,303.667 580.5,303.667 572.5,303C 571.944,302.617 571.611,302.117 571.5,301.5 Z"/></g>
<g><path style="opacity:1" fill="#919190" d="M 870.5,301.5 C 877.5,302.833 884.5,302.833 891.5,301.5C 891.389,302.117 891.056,302.617 890.5,303C 884.167,303.667 877.833,303.667 871.5,303C 870.944,302.617 870.611,302.117 870.5,301.5 Z"/></g>
<g><path style="opacity:1" fill="#4d4b4b" d="M 1206.5,301.5 C 1210.17,301.5 1213.83,301.5 1217.5,301.5C 1217.39,302.117 1217.06,302.617 1216.5,303C 1215.17,303.167 1213.83,303.333 1212.5,303.5C 1210.12,303.639 1208.12,302.972 1206.5,301.5 Z"/></g>
<g><path style="opacity:1" fill="#8b8b8a" d="M 1289.5,301.5 C 1298.08,303.006 1306.75,303.672 1315.5,303.5C 1307.3,304.701 1298.97,304.534 1290.5,303C 1289.94,302.617 1289.61,302.117 1289.5,301.5 Z"/></g>
<g><path style="opacity:1" fill="#9f9f9e" d="M 1333.5,299.5 C 1327.78,301.619 1321.78,302.952 1315.5,303.5C 1321.21,301.387 1327.21,300.054 1333.5,299.5 Z"/></g>
<g><path style="opacity:1" fill="#f5f4f1" d="M 330.5,312.5 C 331.419,315.089 333.086,317.089 335.5,318.5C 345.098,328.755 353.098,340.088 359.5,352.5C 360.688,361.194 360.688,369.861 359.5,378.5C 359.028,383.47 357.528,388.137 355,392.5C 349.476,399.206 342.976,404.54 335.5,408.5C 324.503,409.803 313.503,409.803 302.5,408.5C 293.66,404.261 286.494,397.928 281,389.5C 277.146,380.223 275.646,370.556 276.5,360.5C 279.358,356.366 281.358,351.699 282.5,346.5C 285.811,341.332 288.978,335.998 292,330.5C 300.137,320.691 308.304,310.858 316.5,301C 320.997,300.694 323.83,302.86 325,307.5C 327.328,308.664 329.162,310.33 330.5,312.5 Z"/></g>
<g><path style="opacity:1" fill="#90908f" d="M 1076.5,298.5 C 1077.61,299.946 1077.78,301.613 1077,303.5C 1075.19,306.807 1073.69,310.141 1072.5,313.5C 1073.55,308.401 1074.89,303.401 1076.5,298.5 Z"/></g>
<g><path style="opacity:1" fill="#727271" d="M 1105.5,305.5 C 1105.01,306.995 1104.34,308.329 1103.5,309.5C 1103.16,307.517 1103.82,306.183 1105.5,305.5 Z"/></g>
<g><path style="opacity:1" fill="#747473" d="M 202.5,310.5 C 205.549,311.208 208.215,312.541 210.5,314.5C 207.29,314.13 204.623,312.797 202.5,310.5 Z"/></g>
<g><path style="opacity:1" fill="#7c7b7a" d="M 242.5,315.5 C 238.127,317.448 233.294,318.448 228,318.5C 223.958,318.236 220.125,317.57 216.5,316.5C 225.251,316.803 233.918,316.47 242.5,315.5 Z"/></g>
<g><path style="opacity:1" fill="#929090" d="M 330.5,312.5 C 332.914,313.911 334.581,315.911 335.5,318.5C 333.086,317.089 331.419,315.089 330.5,312.5 Z"/></g>
<g><path style="opacity:1" fill="#7e7d7d" d="M 431.5,313.5 C 419.818,318.602 407.818,319.602 395.5,316.5C 407.67,317.043 419.67,316.043 431.5,313.5 Z"/></g>
<g><path style="opacity:1" fill="#8a8a8a" d="M 1091.5,340.5 C 1091.09,342.887 1090.09,344.887 1088.5,346.5C 1088.62,343.895 1089.62,341.895 1091.5,340.5 Z"/></g>
<g><path style="opacity:1" fill="#9d9d9d" d="M 1060.5,342.5 C 1060.13,344.441 1059.46,346.275 1058.5,348C 1068.49,348.5 1078.49,348.666 1088.5,348.5C 1078.35,349.494 1068.01,349.828 1057.5,349.5C 1057.55,346.654 1058.55,344.32 1060.5,342.5 Z"/></g>
<g><path style="opacity:1" fill="#a7a8a7" d="M 282.5,346.5 C 281.358,351.699 279.358,356.366 276.5,360.5C 277.265,355.143 279.265,350.476 282.5,346.5 Z"/></g>
<g><path style="opacity:1" fill="#9f9f9e" d="M 359.5,352.5 C 360.999,357.245 361.666,362.245 361.5,367.5C 361.333,370.833 361.167,374.167 361,377.5C 360.617,378.056 360.117,378.389 359.5,378.5C 360.688,369.861 360.688,361.194 359.5,352.5 Z"/></g>
<g><path style="opacity:1" fill="#9b9b9a" d="M 302.5,408.5 C 313.503,409.803 324.503,409.803 335.5,408.5C 324.511,412.419 313.511,412.419 302.5,408.5 Z"/></g>
</svg>
